<?xml version="1.0" standalone="no"?>
<!DOCTYPE svg PUBLIC "-//W3C//DTD SVG 1.1//EN" "http://www.w3.org/Graphics/SVG/1.1/DTD/svg11.dtd" >
<svg xmlns="http://www.w3.org/2000/svg">
<metadata>Generated by IcoMoon</metadata>
<defs>
<font id="icomoon" horiz-adv-x="1024">
<font-face units-per-em="1024" ascent="960" descent="-64" />
<missing-glyph horiz-adv-x="1024" />
<glyph unicode="&#x20;" horiz-adv-x="512" d="" />
<glyph unicode="&#xe900;" glyph-name="box-arrow-right" d="M606.766 137.642c0-13.134-10.816-23.951-23.957-23.951h-383.234c-13.14 0-23.951 10.816-23.951 23.951v431.141c0 13.14 10.81 23.951 23.951 23.951h383.234c13.14 0 23.957-10.81 23.957-23.951v-95.808c0-13.14 10.81-23.951 23.951-23.951s23.951 10.81 23.951 23.951v95.808c0 39.421-32.437 71.858-71.858 71.858h-383.234c-39.415 0-71.852-32.437-71.852-71.858v-431.141c0-39.415 32.437-71.852 71.852-71.852h383.234c39.421 0 71.858 32.437 71.858 71.852v95.808c0 13.14-10.81 23.957-23.951 23.957s-23.951-10.816-23.951-23.957v-95.808zM887.195 336.255c4.501 4.495 7.039 10.596 7.039 16.96 0 6.359-2.539 12.466-7.039 16.954l-143.716 143.716c-4.495 4.495-10.596 7.021-16.954 7.021-13.159 0-23.981-10.823-23.981-23.981 0-6.359 2.526-12.46 7.021-16.954l102.854-102.805h-421.226c-13.14 0-23.951-10.81-23.951-23.951s10.81-23.957 23.951-23.957h421.226l-102.854-102.799c-4.495-4.495-7.021-10.602-7.021-16.96 0-13.153 10.823-23.981 23.981-23.981 6.359 0 12.46 2.526 16.954 7.027l143.716 143.71z" />
<glyph unicode="&#xe901;" glyph-name="caret-down" d="M461.254 88.331l-317.029 362.367c-37.41 42.64-7.002 109.599 49.777 109.599h634.052c0.018 0 0.037 0 0.055 0 36.263 0 66.1-29.837 66.1-66.1 0-16.022-5.825-31.511-16.384-43.566l-317.023-362.238c-12.546-14.354-30.708-22.602-49.777-22.602-19.064 0-37.226 8.247-49.771 22.602v-0.061z" />
<glyph unicode="&#xe902;" glyph-name="check-lg" d="M806.103 755.402c9.608 9.799 22.767 15.323 36.484 15.323 13.723 0 26.882-5.525 36.484-15.323 19.928-20.143 20.21-52.684 0.699-73.176l-412.071-487.124c-9.676-10.626-23.399-16.691-37.771-16.691-13.704 0-26.851 5.519-36.447 15.299l-250.745 254.081c-19.989 20.388-19.989 53.487 0 73.875 9.602 9.799 22.761 15.323 36.484 15.323s26.875-5.525 36.484-15.323l212.692-215.549 376.317 447.752c0.435 0.54 0.901 1.049 1.392 1.533z" />
<glyph unicode="&#xe903;" glyph-name="check-square" d="M798.401 784.35c26.281 0 47.907-21.627 47.907-47.901v-574.85c0-26.281-21.627-47.907-47.907-47.907h-574.85c-26.274 0-47.901 21.627-47.901 47.907v574.85c0 26.274 21.627 47.901 47.901 47.901h574.85zM223.551 832.258c-52.555 0-95.808-43.253-95.808-95.808v-574.85c0-52.561 43.253-95.808 95.808-95.808h574.85c52.561 0 95.808 43.247 95.808 95.808v574.85c0 52.555-43.247 95.808-95.808 95.808h-574.85zM653.251 594.174c6.727 6.665 15.826 10.412 25.293 10.412 19.714 0 35.932-16.218 35.932-35.932 0-9.222-3.556-18.101-9.915-24.784l-191.237-239.040c-6.794-7.321-16.341-11.485-26.33-11.485-9.523 0-18.671 3.789-25.404 10.528l-126.706 126.755c-7.291 6.788-11.436 16.317-11.436 26.281 0 19.714 16.218 35.932 35.926 35.932 9.964 0 19.493-4.145 26.287-11.436l100.309-100.266 166.372 211.98c0.294 0.368 0.619 0.724 0.957 1.055h-0.049z" />
<glyph unicode="&#xe904;" glyph-name="cloud-arrow-down-fill" d="M510.976 592.734c-63.206-0.196-124.296-23.012-172.167-64.285-36.692-31.615-63.28-72.814-70.129-114.155-80.289-17.727-140.938-87.665-140.938-172.124 0-98.108 81.822-176.379 181.125-176.379h426.64c86.942 0 158.702 68.504 158.702 154.587 0 78.37-59.496 142.226-135.757 153.005-11.644 123.591-118.612 219.351-247.477 219.351zM623.745 264.397l-95.808-95.808c-4.495-4.501-10.596-7.033-16.96-7.033-6.359 0-12.466 2.532-16.954 7.033l-95.808 95.808c-4.495 4.495-7.027 10.602-7.027 16.96 0 13.159 10.829 23.981 23.981 23.981 6.359 0 12.466-2.526 16.96-7.021l54.897-54.946v181.696c0 13.14 10.81 23.957 23.951 23.957s23.957-10.816 23.957-23.957v-181.696l54.897 54.946c4.495 4.495 10.596 7.021 16.954 7.021 13.159 0 23.987-10.823 23.987-23.981 0-6.359-2.532-12.466-7.027-16.96z" />
<glyph unicode="&#xe905;" glyph-name="collection-play" d="M222.643 611.441c0-13.018 10.706-23.724 23.724-23.724h521.927c13.012 0 23.724 10.706 23.724 23.724 0 13.012-10.712 23.724-23.724 23.724h-521.927c-13.018 0-23.724-10.712-23.724-23.724zM317.538 706.336c0-13.018 10.706-23.724 23.724-23.724h332.132c13.018 0 23.724 10.706 23.724 23.724 0 13.012-10.706 23.724-23.724 23.724h-332.132c-13.018 0-23.724-10.712-23.724-23.724zM448.733 441.764c-3.771 2.361-8.131 3.605-12.576 3.605-13.018 0-23.724-10.706-23.724-23.724v-237.237c0-13.018 10.706-23.724 23.724-23.724 4.446 0 8.805 1.251 12.576 3.605l189.79 118.618c6.929 4.329 11.147 11.951 11.147 20.118 0 8.174-4.219 15.789-11.147 20.118l-189.79 118.618zM198.914 65.79c-39.041 0-71.171 32.124-71.171 71.171v332.132c0 39.047 32.13 71.177 71.171 71.177h616.828c39.041 0 71.171-32.13 71.171-71.177v-332.132c0-39.047-32.13-71.171-71.171-71.171h-616.828zM815.742 113.238c13.012 0 23.724 10.706 23.724 23.724v332.132c0 13.018-10.712 23.73-23.724 23.73h-616.828c-13.012 0-23.724-10.712-23.724-23.73v-332.132c0-13.018 10.712-23.724 23.724-23.724h616.828z" />
<glyph unicode="&#xe906;" glyph-name="dice-5" d="M750.5 784.35c52.555 0 95.808-43.247 95.808-95.808v-479.042c0-52.555-43.253-95.808-95.808-95.808h-479.042c-52.561 0-95.808 43.253-95.808 95.808v479.042c0 52.561 43.247 95.808 95.808 95.808h479.042zM271.458 832.258c-78.842 0-143.716-64.874-143.716-143.716v-479.042c0-78.836 64.874-143.71 143.716-143.71h479.042c78.836 0 143.71 64.874 143.71 143.71v479.042c0 78.842-64.874 143.716-143.71 143.716h-479.042zM391.217 640.641c0-39.421-32.437-71.858-71.858-71.858-39.415 0-71.852 32.437-71.852 71.858 0 39.415 32.437 71.852 71.852 71.852 39.421 0 71.858-32.437 71.858-71.852zM774.451 640.641c0-39.421-32.437-71.858-71.858-71.858-39.415 0-71.852 32.437-71.852 71.858 0 39.415 32.437 71.852 71.852 71.852 39.421 0 71.858-32.437 71.858-71.852zM774.451 257.407c0-39.421-32.437-71.858-71.858-71.858-39.415 0-71.852 32.437-71.852 71.858 0 39.415 32.437 71.852 71.852 71.852 39.421 0 71.858-32.437 71.858-71.852zM391.217 257.407c0-39.421-32.437-71.858-71.858-71.858-39.415 0-71.852 32.437-71.852 71.858 0 39.415 32.437 71.852 71.852 71.852 39.421 0 71.858-32.437 71.858-71.852zM582.834 449.024c0-39.421-32.437-71.858-71.858-71.858-39.415 0-71.852 32.437-71.852 71.858 0 39.415 32.437 71.852 71.852 71.852 39.421 0 71.858-32.437 71.858-71.852z" />
<glyph unicode="&#xe907;" glyph-name="exclamation" d="M415.198 161.329c0 52.543 43.235 95.778 95.778 95.778s95.778-43.235 95.778-95.778c0-52.543-43.235-95.778-95.778-95.778s-95.778 43.235-95.778 95.778zM424.586 736.48c-0.319 3.017-0.478 6.058-0.478 9.093 0 47.552 39.127 86.684 86.678 86.684s86.678-39.133 86.678-86.684c0-3.035-0.159-6.077-0.478-9.093l-33.522-335.897c-2.324-27.213-25.367-48.373-52.678-48.373s-50.354 21.161-52.678 48.373l-33.522 335.897z" />
<glyph unicode="&#xe908;" glyph-name="exclamation-circle" d="M510.976 113.692c-183.952 0-335.326 151.374-335.326 335.332 0 183.952 151.374 335.326 335.326 335.326 183.958 0 335.332-151.374 335.332-335.326 0-183.958-151.374-335.332-335.332-335.332zM510.976 65.79c210.239 0 383.234 172.995 383.234 383.234 0 210.233-172.995 383.234-383.234 383.234-210.233 0-383.234-173.001-383.234-383.234 0-210.239 173.001-383.234 383.234-383.234zM463.167 305.308c0 26.281 21.627 47.907 47.907 47.907s47.901-21.627 47.901-47.907c0-26.281-21.621-47.901-47.901-47.901s-47.907 21.621-47.907 47.901zM467.864 592.973c-0.159 1.515-0.239 3.035-0.239 4.55 0 23.785 19.573 43.358 43.351 43.358 23.785 0 43.358-19.573 43.358-43.358 0-1.515-0.080-3.035-0.239-4.55l-16.77-167.997c-1.159-13.612-12.687-24.196-26.348-24.196-13.655 0-25.183 10.583-26.348 24.196l-16.764 167.997z" />
<glyph unicode="&#xe909;" glyph-name="eye-slash" d="M767.7 296.111c81.485 72.722 126.51 155.115 126.51 155.115s-143.71 263.475-383.234 263.475c-46.006-0.159-91.492-9.749-133.653-28.169l36.889-36.931c31.014 11.295 63.758 17.114 96.765 17.193 101.56 0 185.822-55.952 247.569-117.699 29.721-29.88 56.363-62.666 79.522-97.869-2.778-4.17-5.844-8.768-9.339-13.796-16.053-22.994-39.764-53.653-70.184-84.072-7.904-7.904-16.139-15.71-24.766-23.282l33.921-33.964zM668.917 394.893c6.475 18.113 9.786 37.207 9.786 56.443 0 91.976-75.684 167.666-167.66 167.666-19.241 0-38.336-3.311-56.449-9.786l39.427-39.427c5.617 0.803 11.289 1.208 16.967 1.208 65.702 0 119.759-54.064 119.759-119.759 0-5.678-0.405-11.35-1.208-16.973l39.378-39.372zM527.936 332.662l39.378-39.378c-18.113-6.475-37.207-9.786-56.449-9.786-91.976 0-167.66 75.684-167.66 167.666 0 19.235 3.311 38.329 9.786 56.443l39.421-39.421c-0.803-5.623-1.208-11.295-1.208-16.973 0-65.695 54.064-119.759 119.765-119.759 5.678 0 11.344 0.405 16.967 1.208zM288.222 572.425c-8.621-7.665-16.911-15.427-24.815-23.331-29.714-29.88-56.357-62.666-79.516-97.869l9.339-13.796c16.047-22.994 39.758-53.653 70.178-84.072 61.753-61.747 146.064-117.699 247.569-117.699 34.301 0 66.591 6.371 96.771 17.242l36.882-36.981c-42.156-18.42-87.647-28.010-133.653-28.169-239.518 0-383.234 263.475-383.234 263.475s44.982 82.441 126.516 155.115l33.915-33.964 0.049 0.049zM781.447 146.84l-574.85 574.85 33.915 33.921 574.85-574.85-33.915-33.921z" />
<glyph unicode="&#xe90a;" glyph-name="eye-svg" d="M894.21 449.024c0 0-143.71 263.468-383.234 263.468-239.518 0-383.234-263.468-383.234-263.468s143.716-263.475 383.234-263.475c239.524 0 383.234 263.475 383.234 263.475zM183.934 449.024c23.166 35.202 49.808 67.989 79.522 97.869 61.655 61.747 145.966 117.699 247.52 117.699 101.56 0 185.822-55.952 247.569-117.699 29.721-29.88 56.363-62.666 79.522-97.869-2.778-4.17-5.844-8.768-9.339-13.796-16.053-22.994-39.764-53.653-70.184-84.072-61.747-61.753-146.058-117.705-247.569-117.705-101.554 0-185.816 55.952-247.569 117.705-29.714 29.874-56.357 62.66-79.516 97.869h0.043zM510.976 568.783c-65.695 0-119.759-54.064-119.759-119.759 0-65.702 54.064-119.765 119.759-119.765 65.702 0 119.765 54.064 119.765 119.765 0 65.695-54.064 119.759-119.765 119.759zM343.316 449.024c0 91.976 75.684 167.66 167.66 167.66 91.982 0 167.666-75.684 167.666-167.66 0-91.982-75.684-167.666-167.666-167.666-91.976 0-167.66 75.684-167.66 167.666z" />
<glyph unicode="&#xe90b;" glyph-name="folder2-open" d="M169.959 625.986c0 40.083 32.983 73.066 73.066 73.066h134.641c46.669 0 85.74-27.28 112.579-57.675 19.971-22.602 44.087-39.746 69.417-39.746h219.203c40.083 0 73.072-32.989 73.072-73.072v-31.174c27.765-12.913 45.786-42.677 41.696-75.31l-31.174-249.605c-7.585-60.698-59.784-106.735-120.955-106.68h-461.162c-61.133-0.006-113.278 46.019-120.857 106.68l-31.18 249.605c-3.93 31.401 12.969 61.943 41.653 75.31v128.601zM218.67 504.203h584.551v24.355c0 13.361-10.994 24.355-24.355 24.355h-219.203c-46.963 0-83.3 30.64-105.901 56.216-22.019 24.944-49.005 41.211-76.095 41.211h-134.641c-13.361 0-24.355-10.994-24.355-24.355v-121.782zM200.796 455.493c-13.361-0.006-24.355-11-24.355-24.361 0-1.006 0.067-2.017 0.19-3.017l31.18-249.605c4.544-36.404 35.84-64.021 72.532-64.009h461.211c36.686-0.012 67.983 27.605 72.532 64.009l31.174 249.605c0.129 0.999 0.19 2.011 0.19 3.017 0 13.361-10.988 24.355-24.349 24.361h-620.305z" />
<glyph unicode="&#xe90c;" glyph-name="house-door-fill" d="M427.014 93.163v191.874c0 13.416 13.686 27.102 27.372 27.102h109.488c13.686 0 27.372-13.686 27.372-27.372v-191.605c0-15.017 12.355-27.372 27.372-27.372h218.977c15.017 0 27.372 12.355 27.372 27.372v383.209c0.012 7.26-2.864 14.238-7.99 19.376l-74.127 74.071v180.273c0 15.017-12.355 27.372-27.372 27.372h-54.744c-15.017 0-27.372-12.355-27.372-27.372v-70.785l-144.85 144.905c-5.138 5.145-12.116 8.045-19.382 8.045s-14.244-2.9-19.376-8.045l-328.471-328.465c-5.126-5.138-8.002-12.116-7.99-19.376v-383.209c0-15.017 12.355-27.372 27.372-27.372h218.977c15.017 0 27.372 12.355 27.372 27.372z" />
<glyph unicode="&#xe90d;" glyph-name="list-columns" d="M127.742 760.4c0 13.14 10.816 23.951 23.957 23.951h431.135c13.14 0 23.951-10.81 23.951-23.951s-10.81-23.951-23.951-23.951h-431.135c-13.14 0-23.957 10.81-23.957 23.951zM750.5 760.4c0 13.14 10.81 23.951 23.951 23.951h95.808c13.14 0 23.951-10.81 23.951-23.951s-10.81-23.951-23.951-23.951h-95.808c-13.14 0-23.951 10.81-23.951 23.951zM127.742 664.591c0 13.14 10.816 23.951 23.957 23.951h383.234c13.134 0 23.951-10.81 23.951-23.951s-10.816-23.951-23.951-23.951h-383.234c-13.14 0-23.957 10.81-23.957 23.951zM750.5 664.591c0 13.14 10.81 23.951 23.951 23.951h95.808c13.14 0 23.951-10.81 23.951-23.951s-10.81-23.951-23.951-23.951h-95.808c-13.14 0-23.951 10.81-23.951 23.951zM127.742 568.783c0 13.14 10.816 23.951 23.957 23.951h479.042c13.134 0 23.951-10.81 23.951-23.951s-10.816-23.951-23.951-23.951h-479.042c-13.14 0-23.957 10.81-23.957 23.951zM750.5 568.783c0 13.14 10.81 23.951 23.951 23.951h95.808c13.14 0 23.951-10.81 23.951-23.951s-10.81-23.951-23.951-23.951h-95.808c-13.14 0-23.951 10.81-23.951 23.951zM127.742 472.975c0 13.14 10.816 23.951 23.957 23.951h335.326c13.14 0 23.951-10.81 23.951-23.951s-10.81-23.951-23.951-23.951h-335.326c-13.14 0-23.957 10.81-23.957 23.951zM750.5 472.975c0 13.14 10.81 23.951 23.951 23.951h95.808c13.14 0 23.951-10.81 23.951-23.951s-10.81-23.951-23.951-23.951h-95.808c-13.14 0-23.951 10.81-23.951 23.951zM127.742 377.166c0 13.14 10.816 23.951 23.957 23.951h335.326c13.14 0 23.951-10.81 23.951-23.951s-10.81-23.951-23.951-23.951h-335.326c-13.14 0-23.957 10.81-23.957 23.951zM750.5 377.166c0 13.14 10.81 23.951 23.951 23.951h95.808c13.14 0 23.951-10.81 23.951-23.951s-10.81-23.951-23.951-23.951h-95.808c-13.14 0-23.951 10.81-23.951 23.951zM127.742 281.358c0 13.14 10.816 23.951 23.957 23.951h431.135c13.14 0 23.951-10.81 23.951-23.951s-10.81-23.951-23.951-23.951h-431.135c-13.14 0-23.957 10.81-23.957 23.951zM750.5 281.358c0 13.14 10.81 23.951 23.951 23.951h95.808c13.14 0 23.951-10.81 23.951-23.951s-10.81-23.951-23.951-23.951h-95.808c-13.14 0-23.951 10.81-23.951 23.951zM127.742 185.549c0 13.14 10.816 23.951 23.957 23.951h239.518c13.14 0 23.951-10.81 23.951-23.951s-10.81-23.951-23.951-23.951h-239.518c-13.14 0-23.957 10.81-23.957 23.951zM750.5 185.549c0 13.14 10.81 23.951 23.951 23.951h95.808c13.14 0 23.951-10.81 23.951-23.951s-10.81-23.951-23.951-23.951h-95.808c-13.14 0-23.951 10.81-23.951 23.951zM127.742 89.741c0 13.14 10.816 23.951 23.957 23.951h479.042c13.134 0 23.951-10.81 23.951-23.951s-10.816-23.951-23.951-23.951h-479.042c-13.14 0-23.957 10.81-23.957 23.951zM750.5 89.741c0 13.14 10.81 23.951 23.951 23.951h95.808c13.14 0 23.951-10.81 23.951-23.951s-10.81-23.951-23.951-23.951h-95.808c-13.14 0-23.951 10.81-23.951 23.951z" />
<glyph unicode="&#xe90e;" glyph-name="pencil-square" d="M886.631 749.215c10.111-10.148 10.111-26.802 0-36.95l-54.585-54.628-104.656 104.656 54.579 54.634c10.148 10.142 26.851 10.142 36.999 0l67.664-67.713zM795.053 620.688l-104.663 104.663-356.518-356.573c-2.882-2.882-5.053-6.395-6.334-10.258l-42.125-126.326c-0.441-1.324-0.668-2.716-0.668-4.114 0-7.18 5.911-13.085 13.085-13.085 1.398 0 2.79 0.227 4.121 0.668l126.32 42.125c3.863 1.269 7.376 3.415 10.258 6.279l356.524 356.622zM127.742 144.283c0-43.063 35.435-78.492 78.498-78.492h575.623c43.063 0 78.492 35.429 78.492 78.492v313.976c0 14.354-11.81 26.164-26.164 26.164s-26.164-11.81-26.164-26.164v-313.976c0-14.354-11.81-26.164-26.164-26.164h-575.623c-14.354 0-26.164 11.81-26.164 26.164v575.623c0 14.354 11.81 26.164 26.164 26.164h340.14c14.354 0 26.164 11.816 26.164 26.17 0 14.348-11.81 26.164-26.164 26.164h-340.14c-43.063 0-78.498-35.435-78.498-78.498v-575.623z" />
<glyph unicode="&#xe90f;" glyph-name="people-fill" d="M463.075 65.79c0 0-47.907 0-47.907 47.901 0 47.907 47.907 191.617 239.524 191.617s239.518-143.71 239.518-191.617c0-47.901-47.901-47.901-47.901-47.901h-383.234zM654.692 353.216c78.836 0 143.71 64.874 143.71 143.71 0 78.842-64.874 143.716-143.71 143.716-78.842 0-143.716-64.874-143.716-143.716 0-78.836 64.874-143.71 143.716-143.71zM377.611 65.79c-7.101 14.955-10.639 31.352-10.344 47.901 0 64.911 32.572 131.74 92.743 178.207-30.033 9.253-61.323 13.778-92.743 13.41-191.617 0-239.524-143.71-239.524-191.617 0-47.901 47.907-47.901 47.907-47.901h201.961zM343.316 353.216c65.695 0 119.759 54.057 119.759 119.759 0 65.695-54.064 119.759-119.759 119.759-65.702 0-119.765-54.064-119.765-119.759 0-65.702 54.064-119.759 119.765-119.759z" />
<glyph unicode="&#xe910;" glyph-name="person-fill-gear" d="M633.249 501.947c0-79.59-65.493-145.083-145.083-145.083s-145.083 65.493-145.083 145.083c0 79.59 65.493 145.077 145.083 145.077s145.083-65.487 145.083-145.077zM198.006 115.059c0-48.361 48.361-48.361 48.361-48.361h254.179c-8.223 23.301-12.405 47.834-12.38 72.545-0.061 62.899 27.2 122.819 74.666 164.085-22.583 3.336-47.392 5.175-74.666 5.175-241.799 0-290.16-145.083-290.16-193.444zM676.098 286.257c8.701 29.647 50.679 29.647 59.435 0l2.079-7.156c3.845-13.159 15.998-22.264 29.702-22.264 5.187 0 10.289 1.306 14.839 3.789l6.573 3.581c27.133 14.796 56.823-14.9 42.076-42.027l-3.63-6.579c-2.465-4.537-3.765-9.621-3.765-14.79 0-13.698 9.093-25.845 22.24-29.702l7.205-2.177c29.598-8.701 29.598-50.679 0-59.435l-7.254-2.079c-13.11-3.875-22.178-16.004-22.178-29.678 0-5.194 1.312-10.307 3.802-14.863l3.581-6.573c14.747-27.133-14.943-56.823-42.076-42.076l-6.573 3.63c-4.544 2.465-9.627 3.765-14.796 3.765-13.698 0-25.839-9.093-29.696-22.24l-2.177-7.205c-8.707-29.598-50.685-29.598-59.435 0l-2.079 7.254c-3.881 13.11-16.010 22.178-29.684 22.178-5.194 0-10.301-1.312-14.857-3.802l-6.579-3.581c-27.127-14.747-56.823 14.943-42.070 42.076l3.624 6.573c2.471 4.544 3.765 9.627 3.765 14.796 0 13.698-9.093 25.839-22.24 29.696l-7.156 2.177c-29.647 8.707-29.647 50.685 0 59.435l7.156 2.079c13.159 3.851 22.264 16.004 22.264 29.708 0 5.181-1.306 10.283-3.789 14.833l-3.581 6.579c-14.796 27.127 14.9 56.823 42.027 42.070l6.579-3.624c4.537-2.471 9.621-3.765 14.79-3.765 13.698 0 25.845 9.093 29.702 22.24l2.177 7.156zM778.332 139.243c0 39.795-32.75 72.538-72.545 72.538s-72.538-32.743-72.538-72.538c0-39.795 32.743-72.545 72.538-72.545s72.545 32.75 72.545 72.545z" />
<glyph unicode="&#xe911;" glyph-name="play2-btn" d="M453.013 492.473c-4.053 2.888-8.909 4.439-13.888 4.439-13.134 0-23.944-10.804-23.957-23.938v-239.524c0.012-13.134 10.823-23.932 23.957-23.932 4.979 0 9.835 1.551 13.888 4.439l167.666 119.759c6.291 4.495 10.038 11.767 10.038 19.499s-3.746 15.004-10.038 19.493l-167.666 119.765zM127.742 544.832c0 52.555 43.253 95.808 95.808 95.808h574.85c52.561 0 95.808-43.253 95.808-95.808v-383.234c0-52.561-43.247-95.808-95.808-95.808h-574.85c-52.555 0-95.808 43.247-95.808 95.808v383.234zM846.308 544.832c0 26.274-21.627 47.901-47.907 47.901h-574.85c-26.274 0-47.901-21.627-47.901-47.901v-383.234c0-26.281 21.627-47.907 47.901-47.907h574.85c26.281 0 47.907 21.627 47.907 47.907v383.234z" />
<glyph unicode="&#xe912;" glyph-name="play-btn" d="M453.013 634.699c-4.053 3.851-8.909 5.917-13.888 5.917-13.134 0-23.944-14.403-23.957-31.916v-319.359c0.012-17.512 10.823-31.916 23.957-31.916 4.979 0 9.835 2.066 13.888 5.917l167.666 159.683c6.291 5.991 10.038 15.685 10.038 25.999 0 10.307-3.746 20.008-10.038 25.992l-167.666 159.683zM127.742 704.509c0 70.080 43.253 127.749 95.808 127.749h574.85c52.561 0 95.808-57.669 95.808-127.749v-510.976c0-70.080-43.247-127.742-95.808-127.742h-574.85c-52.555 0-95.808 57.663-95.808 127.742v510.976zM846.308 704.509c0 35.043-21.627 63.874-47.907 63.874h-574.85c-26.274 0-47.901-28.831-47.901-63.874v-510.976c0-35.037 21.627-63.874 47.901-63.874h574.85c26.281 0 47.907 28.838 47.907 63.874v510.976z" />
<glyph unicode="&#xe913;" glyph-name="plus-circle-fill" d="M894.21 449.024c0-210.239-172.995-383.234-383.234-383.234-210.233 0-383.234 172.995-383.234 383.234 0 210.233 173.001 383.234 383.234 383.234 210.239 0 383.234-173.001 383.234-383.234zM534.933 616.684c0 13.14-10.816 23.957-23.957 23.957s-23.951-10.816-23.951-23.957v-143.71h-143.71c-13.14 0-23.957-10.81-23.957-23.951s10.816-23.957 23.957-23.957h143.71v-143.71c0-13.14 10.81-23.951 23.951-23.951s23.957 10.81 23.957 23.951v143.71h143.71c13.14 0 23.951 10.816 23.951 23.957s-10.81 23.951-23.951 23.951h-143.71v143.71z" />
<glyph unicode="&#xe914;" glyph-name="radio-empty" d="M510.976 113.692c-183.952 0-335.326 151.374-335.326 335.332 0 183.952 151.374 335.326 335.326 335.326 183.958 0 335.332-151.374 335.332-335.326 0-183.958-151.374-335.332-335.332-335.332zM510.976 65.79c210.239 0 383.234 172.995 383.234 383.234 0 210.233-172.995 383.234-383.234 383.234-210.233 0-383.234-173.001-383.234-383.234 0-210.239 173.001-383.234 383.234-383.234z" />
<glyph unicode="&#xe915;" glyph-name="tv-fill" d="M247.508 89.741c0 13.14 10.81 23.951 23.951 23.951h479.042c13.14 0 23.951-10.81 23.951-23.951s-10.81-23.951-23.951-23.951h-479.042c-13.14 0-23.951 10.81-23.951 23.951zM223.551 640.641h574.85c0 0 95.808 0 95.808-95.808v-287.425c0 0 0-95.808-95.808-95.808h-574.85c0 0-95.808 0-95.808 95.808v287.425c0 0 0 95.808 95.808 95.808z" />
<glyph unicode="&#xe916;" glyph-name="uncheck-square" d="M798.401 784.35c26.281 0 47.907-21.627 47.907-47.901v-574.85c0-26.281-21.627-47.907-47.907-47.907h-574.85c-26.274 0-47.901 21.627-47.901 47.907v574.85c0 26.274 21.627 47.901 47.901 47.901h574.85zM223.551 832.258c-52.555 0-95.808-43.253-95.808-95.808v-574.85c0-52.561 43.253-95.808 95.808-95.808h574.85c52.561 0 95.808 43.247 95.808 95.808v574.85c0 52.555-43.247 95.808-95.808 95.808h-574.85z" />
<glyph unicode="&#xe917;" glyph-name="x" d="M204.996 755.004c8.56 8.572 20.186 13.398 32.296 13.398 12.116 0 23.742-4.826 32.296-13.398l241.4-241.492 241.4 241.492c8.56 8.56 20.186 13.373 32.296 13.373 25.054 0 45.675-20.615 45.675-45.669 0-12.11-4.813-23.736-13.379-32.296l-241.492-241.4 241.492-241.4c8.566-8.56 13.379-20.186 13.379-32.296 0-25.054-20.621-45.675-45.675-45.675-12.11 0-23.736 4.813-32.296 13.379l-241.4 241.492-241.4-241.492c-8.56-8.566-20.186-13.379-32.296-13.379-25.054 0-45.669 20.621-45.669 45.675 0 12.11 4.813 23.736 13.373 32.296l241.492 241.4-241.492 241.4c-8.572 8.554-13.398 20.18-13.398 32.296 0 12.11 4.826 23.736 13.398 32.296z" />
<glyph unicode="&#xe918;" glyph-name="x-circle" d="M510.976 113.692c-183.952 0-335.326 151.374-335.326 335.332 0 183.952 151.374 335.326 335.326 335.326 183.958 0 335.332-151.374 335.332-335.326 0-183.958-151.374-335.332-335.332-335.332zM510.976 65.79c210.239 0 383.234 172.995 383.234 383.234 0 210.233-172.995 383.234-383.234 383.234-210.233 0-383.234-173.001-383.234-383.234 0-210.239 173.001-383.234 383.234-383.234zM350.306 609.694c4.495 4.501 10.602 7.033 16.96 7.033s12.466-2.532 16.954-7.033l126.755-126.804 126.755 126.804c4.495 4.495 10.602 7.021 16.96 7.021 13.153 0 23.981-10.823 23.981-23.981 0-6.359-2.526-12.46-7.027-16.954l-126.798-126.755 126.798-126.755c4.501-4.495 7.027-10.602 7.027-16.96 0-13.153-10.829-23.981-23.981-23.981-6.359 0-12.466 2.526-16.96 7.027l-126.755 126.798-126.755-126.798c-4.495-4.501-10.596-7.027-16.954-7.027-13.159 0-23.981 10.829-23.981 23.981 0 6.359 2.526 12.466 7.021 16.96l126.804 126.755-126.804 126.755c-4.501 4.488-7.033 10.596-7.033 16.954s2.532 12.466 7.033 16.96z" />
<glyph unicode="&#xe919;" glyph-name="x-circle-fill" d="M894.21 449.024c0-210.239-172.995-383.234-383.234-383.234-210.233 0-383.234 172.995-383.234 383.234 0 210.233 173.001 383.234 383.234 383.234 210.239 0 383.234-173.001 383.234-383.234zM384.221 609.694c-4.495 4.495-10.596 7.021-16.954 7.021-13.159 0-23.981-10.823-23.981-23.981 0-6.359 2.526-12.46 7.021-16.954l126.804-126.755-126.804-126.755c-4.495-4.495-7.021-10.602-7.021-16.96 0-13.153 10.823-23.981 23.981-23.981 6.359 0 12.46 2.526 16.954 7.027l126.755 126.798 126.755-126.798c4.495-4.501 10.602-7.027 16.96-7.027 13.153 0 23.981 10.829 23.981 23.981 0 6.359-2.526 12.466-7.027 16.96l-126.798 126.755 126.798 126.755c4.501 4.495 7.027 10.596 7.027 16.954 0 13.159-10.829 23.981-23.981 23.981-6.359 0-12.466-2.526-16.96-7.021l-126.755-126.804-126.755 126.804z" />
<glyph unicode="&#xe91a;" glyph-name="x-lg" d="M286.659 637.998c-3.599 3.446-5.623 8.125-5.623 12.999 0 10.087 8.664 18.383 19.186 18.383 5.083 0 9.97-1.938 13.563-5.384l197.191-189.011 197.191 189.011c3.599 3.446 8.48 5.384 13.57 5.384 10.522 0 19.18-8.296 19.18-18.383 0-4.875-2.023-9.553-5.617-12.999l-197.227-188.974 197.227-188.974c3.593-3.452 5.617-8.131 5.617-13.005 0-10.081-8.658-18.383-19.18-18.383-5.089 0-9.97 1.938-13.57 5.384l-197.191 189.011-197.191-189.011c-3.593-3.446-8.48-5.384-13.563-5.384-10.522 0-19.186 8.302-19.186 18.383 0 4.875 2.023 9.553 5.623 13.005l197.227 188.974-197.227 188.974z" />
<glyph unicode="&#xe91b;" glyph-name="calendar-event" d="M294.576 832.596c13.098 0 23.873-10.775 23.873-23.873v-23.888h382.090v23.888c0 13.098 10.775 23.873 23.873 23.873 13.113 0 23.888-10.775 23.888-23.873v-23.888h47.761c52.407 0 95.522-43.115 95.522-95.522v-525.373c0-52.407-43.115-95.522-95.522-95.522h-573.134c-52.407 0-95.522 43.115-95.522 95.522v525.373c0 52.407 43.115 95.522 95.522 95.522h47.761v23.888c0 13.098 10.775 23.873 23.888 23.873zM175.165 641.551v-477.612c0-26.196 21.565-47.761 47.761-47.761h573.134c26.196 0 47.761 21.565 47.761 47.761v477.612h-668.657z" />
</font>
</defs>
</svg>
