<?xml version="1.0" standalone="no"?>
<!DOCTYPE svg PUBLIC "-//W3C//DTD SVG 1.1//EN" "http://www.w3.org/Graphics/SVG/1.1/DTD/svg11.dtd" >
<svg xmlns="http://www.w3.org/2000/svg">
<metadata>Generated by IcoMoon</metadata>
<defs>
<font id="icomoon" horiz-adv-x="1024">
<font-face units-per-em="1024" ascent="960" descent="-64" />
<missing-glyph horiz-adv-x="1024" />
<glyph unicode="&#x20;" horiz-adv-x="512" d="" />
<glyph unicode="&#xe900;" glyph-name="circle" d="M511.232 181.888c-118.464 0-188.224 100.48-188.224 255.36v20.992c0 154.112 70.464 255.744 189.76 255.744 118.848 0 187.84-100.48 187.84-255.744v-20.992c0-154.112-70.464-255.36-189.376-255.36zM512 643.136c-64.512 0-104.256-69.76-104.256-185.28v-19.84c0-115.84 40.128-185.28 104.256-185.28s103.872 69.76 103.872 185.28v19.84c0 115.2-39.744 185.28-103.872 185.28zM1024 448c0-282.77-229.23-512-512-512s-512 229.23-512 512v0c0 282.77 229.23 512 512 512s512-229.23 512-512v0zM64 448c0-247.424 200.576-448 448-448s448 200.576 448 448v0c0 247.424-200.576 448-448 448s-448-200.576-448-448v0z" />
<glyph unicode="&#xe901;" glyph-name="circle-fill" d="M512 643.136c-64.512 0-104.256-69.76-104.256-185.28v-19.84c0-115.84 40.128-185.28 104.256-185.28s103.872 69.76 103.872 185.28v19.84c0 115.2-39.744 185.28-103.872 185.28zM1024 448c0-282.77-229.23-512-512-512s-512 229.23-512 512v0c0 282.77 229.23 512 512 512s512-229.23 512-512v0zM511.232 181.888c118.912 0 189.44 101.248 189.44 255.36v20.992c0 155.264-69.056 255.744-187.904 255.744-119.296 0-189.76-101.632-189.76-255.744v-20.992c0-154.88 69.76-255.36 188.224-255.36z" />
<glyph unicode="&#xe902;" glyph-name="square" d="M511.232 181.888c-118.464 0-188.224 100.48-188.224 255.36v20.992c0 154.112 70.464 255.744 189.76 255.744 118.848 0 187.84-100.48 187.84-255.744v-20.992c0-154.112-70.464-255.36-189.376-255.36zM512 643.136c-64.512 0-104.256-69.76-104.256-185.28v-19.84c0-115.84 40.128-185.28 104.256-185.28s103.872 69.76 103.872 185.28v19.84c0 115.2-39.744 185.28-103.872 185.28zM0 832c0 70.692 57.308 128 128 128v0h768c70.692 0 128-57.308 128-128v0-768c0-70.692-57.308-128-128-128v0h-768c-70.692 0-128 57.308-128 128v0zM960 832c0 35.346-28.654 64-64 64v0h-768c-35.346 0-64-28.654-64-64v0-768c0-35.346 28.654-64 64-64v0h768c35.346 0 64 28.654 64 64v0z" />
<glyph unicode="&#xe903;" glyph-name="square-fill" d="M512 643.136c-64.512 0-104.256-69.76-104.256-185.28v-19.84c0-115.84 40.128-185.28 104.256-185.28s103.872 69.76 103.872 185.28v19.84c0 115.2-39.744 185.28-103.872 185.28zM128 960c-70.692 0-128-57.308-128-128v0-768c0-70.692 57.308-128 128-128v0h768c70.692 0 128 57.308 128 128v0 768c0 70.692-57.308 128-128 128v0zM511.232 181.888c-118.464 0-188.224 100.48-188.224 255.36v20.992c0 154.112 70.464 255.744 189.76 255.744 118.848 0 187.84-100.48 187.84-255.744v-20.992c0-154.112-70.464-255.36-189.376-255.36z" />
<glyph unicode="&#xe904;" glyph-name="circle1" d="M64 448c0-247.424 200.576-448 448-448s448 200.576 448 448v0c0 247.424-200.576 448-448 448s-448-200.576-448-448v0zM1024 448c0-282.77-229.23-512-512-512s-512 229.23-512 512v0c0 282.77 229.23 512 512 512s512-229.23 512-512v0zM594.112 703.872v-511.872h-83.968v426.368h-4.16l-117.376-84.352v81.344l121.536 88.512z" />
<glyph unicode="&#xe905;" glyph-name="circle-fill1" d="M1024 448c0-282.77-229.23-512-512-512s-512 229.23-512 512v0c0 282.77 229.23 512 512 512s512-229.23 512-512v0zM594.112 703.872h-83.968l-121.536-88.512v-81.344l117.376 84.352h4.16v-426.368h83.968z" />
<glyph unicode="&#xe906;" glyph-name="square1" d="M594.112 703.872v-511.872h-83.968v426.368h-4.16l-117.376-84.352v81.344l121.536 88.512zM0 832c0 70.692 57.308 128 128 128v0h768c70.692 0 128-57.308 128-128v0-768c0-70.692-57.308-128-128-128v0h-768c-70.692 0-128 57.308-128 128v0zM960 832c0 35.346-28.654 64-64 64v0h-768c-35.346 0-64-28.654-64-64v0-768c0-35.346 28.654-64 64-64v0h768c35.346 0 64 28.654 64 64v0z" />
<glyph unicode="&#xe907;" glyph-name="square-fill1" d="M128 960c-70.692 0-128-57.308-128-128v0-768c0-70.692 57.308-128 128-128v0h768c70.692 0 128 57.308 128 128v0 768c0 70.692-57.308 128-128 128v0zM594.112 703.872v-511.872h-83.968v426.368h-4.16l-117.376-84.352v81.344l121.536 88.512z" />
<glyph unicode="&#xe908;" glyph-name="circle2" d="M64 448c0-247.424 200.576-448 448-448s448 200.576 448 448v0c0 247.424-200.576 448-448 448s-448-200.576-448-448v0zM1024 448c0-282.77-229.23-512-512-512s-512 229.23-512 512v0c0 282.77 229.23 512 512 512s512-229.23 512-512v0zM425.344 560.64v-4.48h-81.344v4.096c0 77.632 56.256 153.728 168.768 153.728 101.248 0 167.232-60.736 167.232-141.76 0-64.128-38.4-106.688-82.368-155.52l-6.144-6.848-126.336-142.080v-4.928h223.872v-70.848h-342.016v53.248l190.080 210.752c27.776 30.4 57.792 64.512 57.792 109.12 0 47.616-35.648 79.104-84.032 79.104-53.952 0-85.504-39.36-85.504-83.584z" />
<glyph unicode="&#xe909;" glyph-name="circle-fill2" d="M1024 448c0-282.77-229.23-512-512-512s-512 229.23-512 512v0c0 282.77 229.23 512 512 512s512-229.23 512-512v0zM425.344 560.64c0 44.224 31.552 83.584 85.504 83.584 48.384 0 84.032-31.488 84.032-79.104 0-44.608-30.016-78.72-57.728-109.12l-190.144-210.752v-53.248h342.016v70.848h-223.872v4.928l132.48 148.928c44.032 48.832 82.368 91.392 82.368 155.52 0 81.024-65.984 141.76-167.232 141.76-112.512 0-168.768-76.16-168.768-153.728v-4.16h81.344v4.48z" />
<glyph unicode="&#xe90a;" glyph-name="square2" d="M425.344 560.64v-4.48h-81.344v4.096c0 77.632 56.256 153.728 168.768 153.728 101.248 0 167.232-60.736 167.232-141.76 0-64.128-38.4-106.688-82.368-155.52l-6.144-6.848-126.336-142.080v-4.928h223.872v-70.848h-342.016v53.248l190.080 210.752c27.776 30.4 57.792 64.512 57.792 109.12 0 47.616-35.648 79.104-84.032 79.104-53.952 0-85.504-39.36-85.504-83.584zM0 832c0 70.692 57.308 128 128 128v0h768c70.692 0 128-57.308 128-128v0-768c0-70.692-57.308-128-128-128v0h-768c-70.692 0-128 57.308-128 128v0zM960 832c0 35.346-28.654 64-64 64v0h-768c-35.346 0-64-28.654-64-64v0-768c0-35.346 28.654-64 64-64v0h768c35.346 0 64 28.654 64 64v0z" />
<glyph unicode="&#xe90b;" glyph-name="square-fill2" d="M128 960c-70.692 0-128-57.308-128-128v0-768c0-70.692 57.308-128 128-128v0h768c70.692 0 128 57.308 128 128v0 768c0 70.692-57.308 128-128 128v0zM425.344 560.64v-4.48h-81.344v4.096c0 77.632 56.256 153.728 168.768 153.728 101.248 0 167.232-60.736 167.232-141.76 0-64.128-38.4-106.688-82.368-155.52l-6.144-6.848-126.336-142.080v-4.928h223.872v-70.848h-342.016v53.248l190.080 210.752c27.776 30.4 57.792 64.512 57.792 109.12 0 47.616-35.648 79.104-84.032 79.104-53.952 0-85.504-39.36-85.504-83.584z" />
<glyph unicode="&#xe90c;" glyph-name="circle3" d="M506.752 421.504h-56.256v68.608h53.632c49.92 0 86.272 33.408 85.888 79.168 0 45.376-36.032 76.48-86.272 76.48-50.56 0-83.968-31.872-86.272-67.52h-79.872c2.304 72.768 60.8 135.36 168 135.744 102.016 0.768 166.912-56.64 168.768-131.968 1.472-72.768-56.64-113.664-94.848-120v-4.48c44.992-4.48 109.44-40.96 110.976-122.688 1.536-93.376-81.728-153.344-187.52-153.344-109.12 0-173.248 61.888-176.256 137.216h78.4c3.776-38.208 43.52-67.84 98.624-68.224 62.272-0.384 102.4 36.032 101.632 86.656-0.384 49.856-39.744 84.352-98.624 84.352zM1024 448c0-282.77-229.23-512-512-512s-512 229.23-512 512v0c0 282.77 229.23 512 512 512s512-229.23 512-512v0zM64 448c0-247.424 200.576-448 448-448s448 200.576 448 448v0c0 247.424-200.576 448-448 448s-448-200.576-448-448v0z" />
<glyph unicode="&#xe90d;" glyph-name="circle-fill3" d="M1024 448c0-282.77-229.23-512-512-512s-512 229.23-512 512v0c0 282.77 229.23 512 512 512s512-229.23 512-512v0zM506.752 421.504c58.88 0 98.24-34.56 98.624-84.352 0.768-50.624-39.36-87.040-101.632-86.656-55.104 0.384-94.848 30.016-98.56 68.224h-78.528c3.008-75.328 67.2-137.216 176.256-137.216 105.792 0 189.056 59.968 187.52 153.344-1.472 81.792-65.984 118.144-110.976 122.624v4.48c38.208 6.4 96.32 47.296 94.848 120.064-1.92 75.328-66.752 132.736-168.768 131.968-107.2-0.384-165.76-62.976-168-135.68h79.872c2.304 35.584 35.648 67.456 86.272 67.456 50.24 0 86.272-31.104 86.272-76.48 0.384-45.76-36.032-79.168-85.888-79.168h-53.632v-68.608h56.256z" />
<glyph unicode="&#xe90e;" glyph-name="square3" d="M506.752 421.504h-56.256v68.608h53.632c49.92 0 86.272 33.408 85.888 79.168 0 45.376-36.032 76.48-86.272 76.48-50.56 0-83.968-31.872-86.272-67.52h-79.872c2.304 72.768 60.8 135.36 168 135.744 102.016 0.768 166.912-56.64 168.768-131.968 1.472-72.768-56.64-113.664-94.848-120v-4.48c44.992-4.48 109.44-40.96 110.976-122.688 1.536-93.376-81.728-153.344-187.52-153.344-109.12 0-173.248 61.888-176.256 137.216h78.4c3.776-38.208 43.52-67.84 98.624-68.224 62.272-0.384 102.4 36.032 101.632 86.656-0.384 49.856-39.744 84.352-98.624 84.352zM0 832c0 70.692 57.308 128 128 128v0h768c70.692 0 128-57.308 128-128v0-768c0-70.692-57.308-128-128-128v0h-768c-70.692 0-128 57.308-128 128v0zM960 832c0 35.346-28.654 64-64 64v0h-768c-35.346 0-64-28.654-64-64v0-768c0-35.346 28.654-64 64-64v0h768c35.346 0 64 28.654 64 64v0z" />
<glyph unicode="&#xe90f;" glyph-name="square-fill3" d="M128 960c-70.692 0-128-57.308-128-128v0-768c0-70.692 57.308-128 128-128v0h768c70.692 0 128 57.308 128 128v0 768c0 70.692-57.308 128-128 128v0zM506.752 421.504h-56.256v68.608h53.632c49.92 0 86.272 33.408 85.888 79.168 0 45.376-36.032 76.48-86.272 76.48-50.56 0-83.968-31.872-86.272-67.52h-79.872c2.304 72.768 60.8 135.36 168 135.744 102.016 0.768 166.912-56.64 168.768-131.968 1.472-72.768-56.64-113.664-94.848-120v-4.48c44.992-4.48 109.44-40.96 110.976-122.688 1.536-93.376-81.728-153.344-187.52-153.344-109.12 0-173.248 61.888-176.256 137.216h78.4c3.776-38.208 43.52-67.84 98.624-68.224 62.272-0.384 102.4 36.032 101.632 86.656-0.384 49.856-39.744 84.352-98.624 84.352z" />
<glyph unicode="&#xe910;" glyph-name="circle4" d="M481.216 636.352q21.12 33.728 42.048 67.52h123.712v-341.248h64.512v-70.848h-64.448v-99.776h-80.64v99.776h-247.808v71.616c49.28 91.328 105.984 182.208 162.688 272.96zM398.4 366.016v-3.392h168v273.344h-4.16c-55.488-85.12-114.368-179.584-163.84-269.952zM1024 448c0-282.77-229.23-512-512-512s-512 229.23-512 512v0c0 282.77 229.23 512 512 512s512-229.23 512-512v0zM64 448c0-247.424 200.576-448 448-448s448 200.576 448 448v0c0 247.424-200.576 448-448 448s-448-200.576-448-448v0z" />
<glyph unicode="&#xe911;" glyph-name="circle-fill4" d="M1024 448c0-282.77-229.23-512-512-512s-512 229.23-512 512v0c0 282.77 229.23 512 512 512s512-229.23 512-512v0zM481.216 636.352c-56.704-90.752-113.408-181.632-162.688-272.96v-71.68h247.872v-99.712h80.64v99.776h64.448v70.848h-64.448v341.248h-123.776zM398.4 366.016v-3.392h168v273.344h-4.16c-55.488-85.12-114.368-179.584-163.84-269.952z" />
<glyph unicode="&#xe912;" glyph-name="square4" d="M481.216 636.352q21.12 33.728 42.048 67.52h123.712v-341.248h64.512v-70.848h-64.448v-99.776h-80.64v99.776h-247.808v71.616c49.28 91.328 105.984 182.208 162.688 272.96zM398.4 366.016v-3.392h168v273.344h-4.16c-55.488-85.12-114.368-179.584-163.84-269.952zM0 832c0 70.692 57.308 128 128 128v0h768c70.692 0 128-57.308 128-128v0-768c0-70.692-57.308-128-128-128v0h-768c-70.692 0-128 57.308-128 128v0zM960 832c0 35.346-28.654 64-64 64v0h-768c-35.346 0-64-28.654-64-64v0-768c0-35.346 28.654-64 64-64v0h768c35.346 0 64 28.654 64 64v0z" />
<glyph unicode="&#xe913;" glyph-name="square-fill4" d="M398.4 366.016v-3.392h168v273.344h-4.16c-55.488-85.12-114.368-179.584-163.84-269.952zM128 960c-70.692 0-128-57.308-128-128v0-768c0-70.692 57.308-128 128-128v0h768c70.692 0 128 57.308 128 128v0 768c0 70.692-57.308 128-128 128v0zM481.216 636.352q21.12 33.728 42.048 67.52h123.712v-341.248h64.512v-70.848h-64.448v-99.776h-80.64v99.776h-247.808v71.616c49.28 91.328 105.984 182.208 162.688 272.96z" />
<glyph unicode="&#xe914;" glyph-name="circle5" d="M64 448c0 247.424 200.576 448 448 448s448-200.576 448-448v0c0-247.424-200.576-448-448-448s-448 200.576-448 448v0zM1024 448c0 282.77-229.23 512-512 512s-512-229.23-512-512v0c0-282.77 229.23-512 512-512s512 229.23 512 512v0zM511.616 181.888c-100.48 0-169.856 57.728-174.016 135.36h79.168c8.96-46.080 53.248-65.984 97.856-65.984 50.624 0 100.48 38.208 100.48 107.584 0 61.888-46.848 100.48-101.248 100.48-49.088 0-79.488-28.8-91.84-51.712h-73.536l22.144 296.384h301.12v-70.592h-231.744l-12.352-149.952h4.096c10.88 16.512 45.76 43.52 103.104 43.52 88.512 0 163.904-60.416 163.904-165.44 0-107.968-75.776-179.584-187.136-179.584z" />
<glyph unicode="&#xe915;" glyph-name="circle-fill5" d="M1024 448c0-282.77-229.23-512-512-512s-512 229.23-512 512v0c0 282.77 229.23 512 512 512s512-229.23 512-512v0zM511.616 181.888c111.36 0 187.136 71.616 187.136 179.584 0 105.024-75.392 165.376-163.84 165.376-57.408 0-92.288-26.944-103.168-43.52h-4.096l12.352 150.016h231.744v70.528h-301.12l-22.144-296.192h73.536c12.352 22.912 42.752 51.776 91.84 51.776 54.4 0 101.248-38.656 101.248-100.48 0-69.44-49.856-107.648-100.48-107.648-44.608 0-88.896 19.84-97.92 65.984h-79.040c4.16-77.632 73.536-135.36 174.080-135.36z" />
<glyph unicode="&#xe916;" glyph-name="square5" d="M511.616 181.888c-100.48 0-169.856 57.728-174.016 135.36h79.168c8.96-46.080 53.248-65.984 97.856-65.984 50.624 0 100.48 38.208 100.48 107.584 0 61.888-46.848 100.48-101.248 100.48-49.088 0-79.488-28.8-91.84-51.712h-73.536l22.144 296.384h301.12v-70.592h-231.744l-12.352-149.952h4.096c10.88 16.512 45.76 43.52 103.104 43.52 88.512 0 163.904-60.416 163.904-165.44 0-107.968-75.776-179.584-187.136-179.584zM0 832c0 70.692 57.308 128 128 128v0h768c70.692 0 128-57.308 128-128v0-768c0-70.692-57.308-128-128-128v0h-768c-70.692 0-128 57.308-128 128v0zM960 832c0 35.346-28.654 64-64 64v0h-768c-35.346 0-64-28.654-64-64v0-768c0-35.346 28.654-64 64-64v0h768c35.346 0 64 28.654 64 64v0z" />
<glyph unicode="&#xe917;" glyph-name="square-fill5" d="M128 960c-70.692 0-128-57.308-128-128v0-768c0-70.692 57.308-128 128-128v0h768c70.692 0 128 57.308 128 128v0 768c0 70.692-57.308 128-128 128v0zM511.616 181.888c-100.48 0-169.856 57.728-174.016 135.36h79.168c8.96-46.080 53.248-65.984 97.856-65.984 50.624 0 100.48 38.208 100.48 107.584 0 61.888-46.848 100.48-101.248 100.48-49.088 0-79.488-28.8-91.84-51.712h-73.536l22.144 296.384h301.12v-70.592h-231.744l-12.352-149.952h4.096c10.88 16.512 45.76 43.52 103.104 43.52 88.512 0 163.904-60.416 163.904-165.44 0-107.968-75.776-179.584-187.136-179.584z" />
<glyph unicode="&#xe918;" glyph-name="circle6" d="M64 448c0-247.424 200.576-448 448-448s448 200.576 448 448v0c0 247.424-200.576 448-448 448s-448-200.576-448-448v0zM1024 448c0-282.77-229.23-512-512-512s-512 229.23-512 512v0c0 282.77 229.23 512 512 512s512-229.23 512-512v0zM525.44 713.28c103.168 0 160.96-63.36 164.672-121.536h-82.496c-6.4 22.912-32.64 52.16-83.968 52.16-68.992 0-116.288-69.76-115.52-194.304h5.248c14.656 34.88 54.72 73.92 126.72 73.92 80.256 0 160.512-56.32 160.512-163.52 0-113.28-77.952-178.112-182.208-178.112-59.648 0-117.76 20.992-154.176 80.256-23.616 38.592-38.208 93.376-38.208 169.088 0 192.768 79.872 282.048 199.488 282.048zM519.104 456.768c-58.88 0-100.096-41.6-100.096-100.864 0-66.048 44.992-104.64 99.712-104.64 55.552 0 99.392 34.112 99.392 104.256 0 67.84-47.616 101.248-99.008 101.248z" />
<glyph unicode="&#xe919;" glyph-name="circle-fill6" d="M1024 448c0-282.77-229.23-512-512-512s-512 229.23-512 512v0c0 282.77 229.23 512 512 512s512-229.23 512-512v0zM525.44 713.28c-119.552 0-199.424-89.28-199.424-282.048 0-75.712 14.592-130.496 38.208-169.088 36.416-59.264 94.528-80.256 154.176-80.256 104.256 0 182.208 64.832 182.208 178.112 0 107.264-80.256 163.52-160.512 163.52-72 0-112.128-39.040-126.72-73.92h-5.248c-0.768 124.544 46.528 194.304 115.52 194.304 51.328 0 77.632-29.248 83.968-52.16h82.56c-3.84 58.112-61.568 121.536-164.672 121.536zM519.104 456.768c-58.88 0-100.096-41.6-100.096-100.864 0-66.048 44.992-104.64 99.712-104.64 55.552 0 99.392 34.112 99.392 104.256 0 67.84-47.616 101.248-99.008 101.248z" />
<glyph unicode="&#xe91a;" glyph-name="square6" d="M525.44 713.28c103.168 0 160.96-63.36 164.672-121.536h-82.496c-6.4 22.912-32.64 52.16-83.968 52.16-68.992 0-116.288-69.76-115.52-194.304h5.248c14.656 34.88 54.72 73.92 126.72 73.92 80.256 0 160.512-56.32 160.512-163.52 0-113.28-77.952-178.112-182.208-178.112-59.648 0-117.76 20.992-154.176 80.256-23.616 38.592-38.208 93.376-38.208 169.088 0 192.768 79.872 282.048 199.488 282.048zM519.104 456.768c-58.88 0-100.096-41.6-100.096-100.864 0-66.048 44.992-104.64 99.712-104.64 55.552 0 99.392 34.112 99.392 104.256 0 67.84-47.616 101.248-99.008 101.248zM0 832c0 70.692 57.308 128 128 128v0h768c70.692 0 128-57.308 128-128v0-768c0-70.692-57.308-128-128-128v0h-768c-70.692 0-128 57.308-128 128v0zM960 832c0 35.346-28.654 64-64 64v0h-768c-35.346 0-64-28.654-64-64v0-768c0-35.346 28.654-64 64-64v0h768c35.346 0 64 28.654 64 64v0z" />
<glyph unicode="&#xe91b;" glyph-name="square-fill6" d="M519.104 456.768c-58.88 0-100.096-41.6-100.096-100.864 0-66.048 44.992-104.64 99.712-104.64 55.552 0 99.392 34.112 99.392 104.256 0 67.84-47.616 101.248-99.008 101.248zM128 960c-70.692 0-128-57.308-128-128v0-768c0-70.692 57.308-128 128-128v0h768c70.692 0 128 57.308 128 128v0 768c0 70.692-57.308 128-128 128v0zM525.44 713.28c103.168 0 160.96-63.36 164.672-121.536h-82.496c-6.4 22.912-32.64 52.16-83.968 52.16-68.992 0-116.288-69.76-115.52-194.304h5.248c14.656 34.88 54.72 73.92 126.72 73.92 80.256 0 160.512-56.32 160.512-163.52 0-113.28-77.952-178.112-182.208-178.112-59.648 0-117.76 20.992-154.176 80.256-23.616 38.592-38.208 93.376-38.208 169.088 0 192.768 79.872 282.048 199.488 282.048z" />
<glyph unicode="&#xe91c;" glyph-name="circle7" d="M64 448c0-247.424 200.576-448 448-448s448 200.576 448 448v0c0 247.424-200.576 448-448 448s-448-200.576-448-448v0zM1024 448c0-282.77-229.23-512-512-512s-512 229.23-512 512v0c0 282.77 229.23 512 512 512s512-229.23 512-512v0zM343.68 632.96v70.976h339.712v-73.536l-208.512-438.4h-89.28l212.288 436.48v4.48h-254.272z" />
<glyph unicode="&#xe91d;" glyph-name="circle-fill7" d="M1024 448c0-282.77-229.23-512-512-512s-512 229.23-512 512v0c0 282.77 229.23 512 512 512s512-229.23 512-512v0zM343.68 632.96h254.208v-4.48l-212.288-436.48h89.28l208.512 438.4v73.472h-339.776v-70.848z" />
<glyph unicode="&#xe91e;" glyph-name="square7" d="M343.68 632.96v70.976h339.712v-73.536l-208.512-438.4h-89.28l212.288 436.48v4.48h-254.272zM0 832c0 70.692 57.308 128 128 128v0h768c70.692 0 128-57.308 128-128v0-768c0-70.692-57.308-128-128-128v0h-768c-70.692 0-128 57.308-128 128v0zM960 832c0 35.346-28.654 64-64 64v0h-768c-35.346 0-64-28.654-64-64v0-768c0-35.346 28.654-64 64-64v0h768c35.346 0 64 28.654 64 64v0z" />
<glyph unicode="&#xe91f;" glyph-name="square-fill7" d="M128 960c-70.692 0-128-57.308-128-128v0-768c0-70.692 57.308-128 128-128v0h768c70.692 0 128 57.308 128 128v0 768c0 70.692-57.308 128-128 128v0zM343.68 632.96v70.976h339.712v-73.536l-208.512-438.4h-89.28l212.288 436.48v4.48h-254.272z" />
<glyph unicode="&#xe920;" glyph-name="circle8" d="M64 448c0-247.424 200.576-448 448-448s448 200.576 448 448v0c0 247.424-200.576 448-448 448s-448-200.576-448-448v0zM1024 448c0-282.77-229.23-512-512-512s-512 229.23-512 512v0c0 282.77 229.23 512 512 512s512-229.23 512-512v0zM702.080 332.608c0-89.216-77.952-150.72-191.232-150.72-112.832 0-188.992 61.12-188.992 150.016 0 81.344 60.8 118.464 105.408 128.192v4.16c-39.744 12.352-85.12 47.232-85.12 113.984 0 78.4 69.76 135.744 170.24 135.744s169.856-57.344 169.856-135.68c0-67.904-47.232-102.080-85.504-114.048v-4.16c44.992-9.728 105.408-47.616 105.408-127.488zM423.872 570.048c0-47.296 37.504-80.32 88.512-80.32s88.128 33.024 88.128 80.256c0 46.912-37.12 78.72-88.128 78.72s-88.512-31.808-88.512-78.72zM405.888 336.768c0-53.632 46.080-90.368 106.496-90.368 60.352 0 106.112 36.736 106.112 90.368 0 53.952-45.76 91.136-106.112 91.136-60.416 0-106.496-37.12-106.496-91.136z" />
<glyph unicode="&#xe921;" glyph-name="circle-fill8" d="M1024 448c0-282.77-229.23-512-512-512s-512 229.23-512 512v0c0 282.77 229.23 512 512 512s512-229.23 512-512v0zM702.080 332.608c0 79.872-60.352 117.76-105.344 127.488v4.16c38.272 11.968 85.504 46.080 85.504 113.984 0 78.4-69.376 135.744-169.856 135.744s-170.24-57.344-170.24-135.68c0-66.816 45.376-101.696 85.12-114.048v-4.16c-44.608-9.728-105.408-46.848-105.408-128.192 0-88.96 76.16-150.016 188.992-150.016 113.28 0 191.296 61.44 191.296 150.72zM423.872 570.048c0-47.296 37.504-80.32 88.512-80.32s88.128 33.024 88.128 80.256c0 46.912-37.12 78.72-88.128 78.72s-88.512-31.808-88.512-78.72zM405.888 336.768c0-53.632 46.080-90.368 106.496-90.368 60.352 0 106.112 36.736 106.112 90.368 0 53.952-45.76 91.136-106.112 91.136-60.416 0-106.496-37.12-106.496-91.136z" />
<glyph unicode="&#xe922;" glyph-name="square8" d="M702.080 332.608c0-89.216-77.952-150.72-191.232-150.72-112.832 0-188.992 61.12-188.992 150.016 0 81.344 60.8 118.464 105.408 128.192v4.16c-39.744 12.352-85.12 47.232-85.12 113.984 0 78.4 69.76 135.744 170.24 135.744s169.856-57.344 169.856-135.68c0-67.904-47.232-102.080-85.504-114.048v-4.16c44.992-9.728 105.408-47.616 105.408-127.488zM423.872 570.048c0-47.296 37.504-80.32 88.512-80.32s88.128 33.024 88.128 80.256c0 46.912-37.12 78.72-88.128 78.72s-88.512-31.808-88.512-78.72zM405.888 336.768c0-53.632 46.080-90.368 106.496-90.368 60.352 0 106.112 36.736 106.112 90.368 0 53.952-45.76 91.136-106.112 91.136-60.416 0-106.496-37.12-106.496-91.136zM0 832c0 70.692 57.308 128 128 128v0h768c70.692 0 128-57.308 128-128v0-768c0-70.692-57.308-128-128-128v0h-768c-70.692 0-128 57.308-128 128v0zM960 832c0 35.346-28.654 64-64 64v0h-768c-35.346 0-64-28.654-64-64v0-768c0-35.346 28.654-64 64-64v0h768c35.346 0 64 28.654 64 64v0z" />
<glyph unicode="&#xe923;" glyph-name="square-fill8" d="M423.872 569.984c0-47.232 37.504-80.256 88.512-80.256s88.128 33.024 88.128 80.256c0 46.912-37.12 78.72-88.128 78.72s-88.512-31.808-88.512-78.72zM405.888 336.768c0-53.632 46.080-90.368 106.496-90.368 60.352 0 106.112 36.736 106.112 90.368 0 53.952-45.76 91.136-106.112 91.136-60.416 0-106.496-37.12-106.496-91.136zM128 960c-70.692 0-128-57.308-128-128v0-768c0-70.692 57.308-128 128-128v0h768c70.692 0 128 57.308 128 128v0 768c0 70.692-57.308 128-128 128v0zM702.080 332.608c0-89.216-77.952-150.72-191.232-150.72-112.832 0-188.992 61.12-188.992 150.016 0 81.344 60.8 118.464 105.408 128.192v4.16c-39.744 12.352-85.12 47.232-85.12 113.984 0 78.4 69.76 135.744 170.24 135.744s169.856-57.344 169.856-135.68c0-67.904-47.232-102.080-85.504-114.048v-4.16c44.992-9.728 105.408-47.616 105.408-127.488z" />
<glyph unicode="&#xe924;" glyph-name="circle9" d="M64 448c0-247.424 200.576-448 448-448s448 200.576 448 448v0c0 247.424-200.576 448-448 448s-448-200.576-448-448v0zM1024 448c0-282.77-229.23-512-512-512s-512 229.23-512 512v0c0 282.77 229.23 512 512 512s512-229.23 512-512v0zM497.728 182.656c-101.952 0-155.2 56.96-161.28 115.072h82.944c6.4-22.848 34.496-46.080 79.872-46.080 87.040 0 120.32 86.592 117.376 193.472h-4.864c-15.040-40.128-55.872-75.776-123.776-75.776-89.28 0-164.224 61.504-164.224 170.624 0 109.504 79.488 174.784 183.68 174.784 96.768 0 190.144-55.488 190.144-256.896 0-181.504-65.28-275.2-199.872-275.2zM505.28 436.864c51.712 0 98.24 33.792 98.24 102.016s-42.752 107.264-99.84 107.264c-53.632 0-97.088-39.424-97.088-106.176 0-68.608 45.312-103.040 98.56-103.040z" />
<glyph unicode="&#xe925;" glyph-name="circle-fill9" d="M1024 448c0-282.77-229.23-512-512-512s-512 229.23-512 512v0c0 282.77 229.23 512 512 512s512-229.23 512-512v0zM497.728 182.656c134.656 0 199.872 93.696 199.872 275.2 0 201.408-93.376 256.896-190.080 256.896-104.32 0-183.744-65.28-183.744-174.72 0-109.184 74.944-170.688 164.224-170.688 67.84 0 108.8 35.648 123.776 75.776h4.864c3.008-106.88-30.4-193.472-117.376-193.472-45.44 0-73.536 23.232-79.872 46.080h-82.88c6.016-58.112 59.264-115.072 161.28-115.072zM505.28 436.864c51.712 0 98.24 33.792 98.24 102.016s-42.752 107.264-99.84 107.264c-53.632 0-97.088-39.424-97.088-106.176 0-68.608 45.312-103.040 98.56-103.040z" />
<glyph unicode="&#xe926;" glyph-name="square9" d="M497.728 182.656c-101.952 0-155.2 56.96-161.28 115.072h82.944c6.4-22.848 34.496-46.080 79.872-46.080 87.040 0 120.32 86.592 117.376 193.472h-4.864c-15.040-40.128-55.872-75.776-123.776-75.776-89.28 0-164.224 61.504-164.224 170.624 0 109.504 79.488 174.784 183.68 174.784 96.768 0 190.144-55.488 190.144-256.896 0-181.504-65.28-275.2-199.872-275.2zM505.28 436.864c51.712 0 98.24 33.792 98.24 102.016s-42.752 107.264-99.84 107.264c-53.632 0-97.088-39.424-97.088-106.176 0-68.608 45.312-103.040 98.56-103.040zM0 832c0 70.692 57.308 128 128 128v0h768c70.692 0 128-57.308 128-128v0-768c0-70.692-57.308-128-128-128v0h-768c-70.692 0-128 57.308-128 128v0zM960 832c0 35.346-28.654 64-64 64v0h-768c-35.346 0-64-28.654-64-64v0-768c0-35.346 28.654-64 64-64v0h768c35.346 0 64 28.654 64 64v0z" />
<glyph unicode="&#xe927;" glyph-name="square-fill9" d="M505.28 436.864c51.712 0 98.24 33.792 98.24 102.016s-42.752 107.264-99.84 107.264c-53.632 0-97.088-39.424-97.088-106.176 0-68.608 45.312-103.040 98.56-103.040zM128 960c-70.692 0-128-57.308-128-128v0-768c0-70.692 57.308-128 128-128v0h768c70.692 0 128 57.308 128 128v0 768c0 70.692-57.308 128-128 128v0zM497.728 182.656c-101.952 0-155.2 56.96-161.28 115.072h82.944c6.4-22.848 34.496-46.080 79.872-46.080 87.040 0 120.32 86.592 117.376 193.472h-4.864c-15.040-40.128-55.872-75.776-123.776-75.776-89.28 0-164.224 61.504-164.224 170.624 0 109.504 79.488 174.784 183.68 174.784 96.768 0 190.144-55.488 190.144-256.896 0-181.504-65.28-275.2-199.872-275.2z" />
<glyph unicode="&#xe928;" glyph-name="123" d="M183.872 236.992v457.92h-75.136l-108.736-79.168v-72.768l104.96 75.52h3.84v-381.504zM389.504 562.752v4.032c0 39.552 28.16 74.816 76.544 74.816 43.264 0 75.136-28.16 75.136-70.784 0-39.936-26.88-70.464-51.648-97.664l-170.176-188.544v-47.616h305.92v63.36h-200.128v4.416l113.088 127.104c41.6 46.336 79.168 85.248 79.168 145.28-0.064 72.512-59.136 126.848-149.696 126.848-100.672 0-151.040-68.096-151.040-137.6v-3.648zM809.28 442.24h50.304c52.672 0 87.936-30.784 88.256-75.456 0.64-45.248-35.2-77.824-90.944-77.44-49.28 0.32-84.864 26.816-88.256 60.992h-70.080c2.688-67.392 60.032-122.752 157.696-122.752 94.592 0 169.088 53.696 167.68 137.216-1.28 73.152-59.008 105.664-99.264 109.696v4.032c34.24 5.76 86.208 42.24 84.864 107.392-1.664 67.392-59.712 118.72-150.976 118.080-96-0.32-148.288-56.32-150.272-121.472h71.424c2.048 31.872 31.872 60.416 77.184 60.416 44.992 0 77.184-27.84 77.184-68.48 0.32-40.96-32.256-70.784-76.8-70.784h-48z" />
<glyph unicode="&#xe929;" glyph-name="activity" d="M384 832c13.764-0.006 25.496-8.702 30.008-20.898l0.072-0.222 225.92-621.184 97.92 269.312c4.62 12.355 16.325 20.992 30.047 20.992 0.012 0 0.023 0 0.035 0h223.998c17.673 0 32-14.327 32-32s-14.327-32-32-32v0h-201.6l-120.32-330.88c-4.595-12.403-16.324-21.082-30.080-21.082s-25.484 8.68-30.008 20.861l-0.072 0.221-225.92 621.184-97.92-269.248c-4.603-12.389-16.324-21.056-30.070-21.056-0.003 0-0.007 0-0.010 0h-223.999c-17.673 0-32 14.327-32 32s14.327 32 32 32v0h201.6l120.32 330.88c4.584 12.418 16.316 21.114 30.079 21.12h0.001z" />
<glyph unicode="&#xe92a;" glyph-name="airplane" d="M411.392 886.336c17.92 35.84 50.24 73.664 100.608 73.664s82.688-37.888 100.608-73.664c18.496-37.056 27.392-81.92 27.392-118.336v-236.224l330.88-165.44c31.743-16.103 53.119-48.499 53.12-85.888v0-88.448c-0.008-17.667-14.332-31.985-32-31.985-1.854 0-3.67 0.158-5.438 0.46l0.19-0.027-352.448 58.752-24-144.192 84.352-84.352c5.808-5.794 9.401-13.805 9.401-22.656 0-17.673-14.327-32-32-32-0.020 0-0.040 0-0.060 0h-319.997c-0.017 0-0.037 0-0.057 0-17.673 0-32 14.327-32 32 0 8.851 3.593 16.862 9.401 22.655l84.417 84.353-24.064 144.192-352.448-58.752c-1.578-0.276-3.394-0.433-5.248-0.433-17.668 0-31.992 14.318-32 31.984v88.449c0.001 37.389 21.377 69.785 52.574 85.636l0.546 0.252 330.88 165.44v236.224c0 36.352 8.96 81.344 27.392 118.336zM468.608 857.664c-13.504-26.944-20.608-62.080-20.608-89.664v-256c0-12.446-7.106-23.233-17.483-28.524l-0.181-0.084-348.672-174.336c-10.558-5.375-17.664-16.162-17.664-28.608v0-50.688l346.752 57.792c1.577 0.276 3.393 0.433 5.247 0.433 15.791 0 28.911-11.438 31.526-26.482l0.027-0.191 32-192c0.282-1.596 0.444-3.434 0.444-5.31 0-8.852-3.594-16.864-9.403-22.658l-0.001-0.001-41.28-41.344h165.504l-41.408 41.344c-5.804 5.793-9.394 13.802-9.394 22.649 0 1.856 0.158 3.675 0.461 5.444l-0.027-0.19 32 192c2.611 15.27 15.748 26.746 31.566 26.746 1.871 0 3.705-0.161 5.489-0.469l-0.191 0.027 346.688-57.792v50.688c0 12.446-7.106 23.233-17.483 28.524l-0.181 0.084-348.672 174.336c-10.558 5.375-17.664 16.162-17.664 28.608v0 256c0 27.648-7.040 62.656-20.608 89.664-14.080 28.16-29.76 38.336-43.392 38.336s-29.312-10.112-43.392-38.336z" />
<glyph unicode="&#xe92b;" glyph-name="airplane-engines" d="M512 960c-50.368 0-82.688-37.888-100.608-73.664-16.985-34.594-27.056-75.249-27.391-118.223l-0.001-0.113v-236.224l-128-64v12.224c0 17.673-14.327 32-32 32v0h-64c-17.673 0-32-14.327-32-32v0-76.224l-74.88-37.44c-31.743-16.103-53.119-48.499-53.12-85.888v0-88.448c0.008-17.667 14.332-31.985 32-31.985 1.854 0 3.67 0.158 5.438 0.46l-0.19-0.027 104.384 17.408 20.032-59.968c4.387-12.788 16.307-21.815 30.336-21.815s25.949 9.028 30.269 21.59l0.067 0.225 25.92 77.696 141.44 23.616 24-144.192-84.352-84.352c-5.808-5.794-9.401-13.805-9.401-22.656 0-17.673 14.327-32 32-32 0.020 0 0.040 0 0.060 0h319.997c0.017 0 0.037 0 0.057 0 17.673 0 32 14.327 32 32 0 8.851-3.593 16.862-9.401 22.655l-84.353 84.353 24 144.192 141.44-23.616 25.92-77.696c4.387-12.788 16.307-21.815 30.336-21.815s25.949 9.028 30.269 21.59l0.067 0.225 20.032 59.968 104.32-17.408c1.597-0.282 3.436-0.444 5.312-0.444 17.672 0 31.998 14.325 32 31.996v0 88.448c-0.001 37.389-21.377 69.785-52.574 85.636l-0.546 0.252-74.88 37.44v76.224c0 17.673-14.327 32-32 32v0h-64c-17.673 0-32-14.327-32-32v0-12.224l-128 64v236.224c0 36.352-8.96 81.344-27.392 118.336-17.92 35.84-50.24 73.664-100.608 73.664zM448 768c0 27.648 7.040 62.656 20.608 89.664 14.080 28.16 29.76 38.336 43.392 38.336s29.312-10.112 43.392-38.336c13.504-26.944 20.608-62.080 20.608-89.664v-256c0-12.446 7.106-23.233 17.483-28.524l0.181-0.084 348.672-174.336c10.558-5.375 17.664-16.162 17.664-28.608v0-50.688l-346.752 57.792c-1.577 0.276-3.393 0.433-5.247 0.433-15.791 0-28.911-11.438-31.526-26.482l-0.027-0.191-32-192c-0.282-1.596-0.444-3.434-0.444-5.31 0-8.852 3.594-16.864 9.403-22.658l41.345-41.345h-165.504l41.408 41.344c5.804 5.793 9.394 13.802 9.394 22.649 0 1.856-0.158 3.675-0.461 5.444l0.027-0.19-32 192c-2.611 15.27-15.748 26.746-31.566 26.746-1.871 0-3.705-0.161-5.489-0.469l0.191 0.027-346.752-57.792v50.688c0 12.446 7.106 23.233 17.483 28.524l0.181 0.084 348.672 174.336c10.558 5.375 17.664 16.162 17.664 28.608v0z" />
<glyph unicode="&#xe92c;" glyph-name="airplane-engines-fill" d="M512 960c-50.368 0-82.688-37.888-100.608-73.664-16.985-34.594-27.056-75.249-27.391-118.223l-0.001-0.113v-236.224l-128-64v12.224c0 17.673-14.327 32-32 32v0h-64c-17.673 0-32-14.327-32-32v0-76.224l-74.88-37.44c-31.743-16.103-53.119-48.499-53.12-85.888v0-88.448c0.008-17.667 14.332-31.985 32-31.985 1.854 0 3.67 0.158 5.438 0.46l-0.19-0.027 104.384 17.408 20.032-59.968c4.387-12.788 16.307-21.815 30.336-21.815s25.949 9.028 30.269 21.59l0.067 0.225 25.92 77.696 141.44 23.616 24-144.192-84.352-84.352c-5.808-5.794-9.401-13.805-9.401-22.656 0-17.673 14.327-32 32-32 0.020 0 0.040 0 0.060 0h319.997c0.017 0 0.037 0 0.057 0 17.673 0 32 14.327 32 32 0 8.851-3.593 16.862-9.401 22.655l-84.353 84.353 24 144.192 141.44-23.616 25.92-77.696c4.387-12.788 16.307-21.815 30.336-21.815s25.949 9.028 30.269 21.59l0.067 0.225 20.032 59.968 104.32-17.408c1.597-0.282 3.436-0.444 5.312-0.444 17.672 0 31.998 14.325 32 31.996v0 88.448c-0.001 37.389-21.377 69.785-52.574 85.636l-0.546 0.252-74.88 37.44v76.224c0 17.673-14.327 32-32 32v0h-64c-17.673 0-32-14.327-32-32v0-12.224l-128 64v236.224c0 36.352-8.96 81.344-27.392 118.336-17.92 35.84-50.24 73.664-100.608 73.664z" />
<glyph unicode="&#xe92d;" glyph-name="airplane-fill" d="M411.392 886.336c17.92 35.84 50.24 73.664 100.608 73.664s82.688-37.888 100.608-73.664c18.496-37.056 27.392-81.92 27.392-118.336v-236.224l330.88-165.44c31.743-16.103 53.119-48.499 53.12-85.888v0-88.448c-0.008-17.667-14.332-31.985-32-31.985-1.854 0-3.67 0.158-5.438 0.46l0.19-0.027-352.448 58.752-24-144.192 84.352-84.352c5.808-5.794 9.401-13.805 9.401-22.656 0-17.673-14.327-32-32-32-0.020 0-0.040 0-0.060 0h-319.997c-0.017 0-0.037 0-0.057 0-17.673 0-32 14.327-32 32 0 8.851 3.593 16.862 9.401 22.655l84.417 84.353-24.064 144.192-352.448-58.752c-1.578-0.276-3.394-0.433-5.248-0.433-17.668 0-31.992 14.318-32 31.984v88.449c0.001 37.389 21.377 69.785 52.574 85.636l0.546 0.252 330.88 165.44v236.224c0 36.352 8.96 81.344 27.392 118.336z" />
<glyph unicode="&#xe92e;" glyph-name="alarm" d="M544 608c0 17.673-14.327 32-32 32s-32-14.327-32-32v0-215.168l-91.456-152.32c-2.868-4.704-4.566-10.394-4.566-16.48 0-17.685 14.337-32.022 32.022-32.022 11.599 0 21.758 6.167 27.376 15.401l0.080 0.142 96 160c2.854 4.693 4.544 10.368 4.544 16.437 0 0.004 0 0.008 0 0.012v-0.001zM416 960c-17.673 0-32-14.327-32-32s14.327-32 32-32v0h32v-68.48c-218.364-32.434-383.996-218.604-383.996-443.46 0-144.007 67.936-272.146 173.508-354.117l1.016-0.759-38.528-38.528c-5.804-5.796-9.394-13.807-9.394-22.656 0-17.683 14.335-32.018 32.018-32.018 8.834 0 16.832 3.577 22.624 9.362v0l47.744 47.744c62.847-35.913 138.121-57.088 218.341-57.088 0.234 0 0.469 0 0.703 0.001h-0.036c0.198 0 0.432 0 0.667 0 80.22 0 155.495 21.175 220.539 58.241l-2.197-1.153 47.744-47.744c5.792-5.785 13.79-9.362 22.624-9.362 17.683 0 32.018 14.335 32.018 32.018 0 8.849-3.59 16.86-9.393 22.656v0l-38.464 38.528c106.582 82.73 174.514 210.866 174.514 354.868 0 224.874-165.659 411.057-381.598 443.168l-2.451 0.299v68.48h32c17.673 0 32 14.327 32 32s-14.327 32-32 32v0zM482.432 766.848c8.852 0.726 19.162 1.14 29.568 1.14s20.716-0.414 30.914-1.226l-1.346 0.086c198.967-15.828 354.432-181.189 354.432-382.86 0-212.077-171.923-384-384-384s-384 171.923-384 384c0 201.671 155.464 367.031 353.086 382.774l1.346 0.086zM0 736c0-48.192 21.312-91.456 55.040-120.768 50.365 97.717 128.010 175.363 222.853 224.377l2.875 1.351c-29.493 33.806-72.65 55.047-120.768 55.047-88.366 0-160-71.634-160-160 0-0.003 0-0.005 0-0.008v0zM864 896c-48.192 0-91.456-21.312-120.768-55.040 97.717-50.365 175.363-128.010 224.377-222.853l1.351-2.875c33.806 29.493 55.047 72.65 55.047 120.768 0 88.366-71.634 160-160 160-0.003 0-0.005 0-0.008 0v0z" />
<glyph unicode="&#xe92f;" glyph-name="alarm-fill" d="M384 928c0 17.673 14.327 32 32 32v0h192c17.673 0 32-14.327 32-32s-14.327-32-32-32v0h-32v-68.48c218.39-32.411 384.050-218.593 384.050-443.468 0-144.002-67.932-272.138-173.498-354.11l-1.016-0.759 38.464-38.528c5.804-5.796 9.394-13.807 9.394-22.656 0-17.683-14.335-32.018-32.018-32.018-8.834 0-16.832 3.577-22.624 9.362v0l-47.744 47.744c-62.847-35.913-138.121-57.088-218.341-57.088-0.234 0-0.469 0-0.703 0.001h0.036c-0.198 0-0.432 0-0.667 0-80.22 0-155.495 21.175-220.539 58.241l2.197-1.153-47.744-47.744c-5.792-5.785-13.79-9.362-22.624-9.362-17.683 0-32.018 14.335-32.018 32.018 0 8.849 3.59 16.86 9.393 22.656v0l38.528 38.528c-106.588 82.73-174.524 210.869-174.524 354.876 0 224.855 165.631 411.026 381.544 443.16l2.452 0.3v68.48h-32c-17.673 0-32 14.327-32 32v0zM544 608c0 17.673-14.327 32-32 32s-32-14.327-32-32v0-215.168l-91.456-152.32c-2.868-4.704-4.566-10.394-4.566-16.48 0-17.685 14.337-32.022 32.022-32.022 11.599 0 21.758 6.167 27.376 15.401l0.080 0.142 96 160c2.854 4.693 4.544 10.368 4.544 16.437 0 0.004 0 0.008 0 0.012v-0.001zM55.040 615.232c-33.774 29.491-54.992 72.628-54.992 120.72 0 88.366 71.634 160 160 160 48.092 0 91.229-21.218 120.559-54.804l0.161-0.188c-97.717-50.365-175.363-128.010-224.377-222.853l-1.351-2.875zM743.232 840.96c29.491 33.774 72.628 54.992 120.72 54.992 88.366 0 160-71.634 160-160 0-48.092-21.218-91.229-54.804-120.559l-0.188-0.161c-50.365 97.717-128.010 175.363-222.853 224.377l-2.875 1.351z" />
<glyph unicode="&#xe930;" glyph-name="alexa" d="M511.744 960c-282.659-0.146-511.744-229.32-511.744-512v0c0-0.035 0-0.078 0-0.12 0-258.62 191.748-472.455 440.832-507.093l2.688-0.306v103.232c0 0.096 0.001 0.209 0.001 0.322 0 29.608-18.967 54.785-45.413 64.045l-0.476 0.145c-143.122 49.189-244.138 182.647-244.138 339.698 0 3.065 0.038 6.122 0.115 9.169l-0.009-0.451c4.109 194.054 162.389 349.792 357.045 349.792 1.692 0 3.38-0.012 5.066-0.035l-0.255 0.003c196.251-2.208 354.493-161.814 354.493-358.379 0-4.734-0.092-9.447-0.274-14.136l0.021 0.675-0.128-2.944-0.768-12.288-0.32-3.904c-0.656-7.522-1.404-13.756-2.328-19.933l0.216 1.757-0.64-4.352c-43.84-289.024-420.096-451.456-422.144-452.352 20.436-2.891 44.041-4.541 68.032-4.541 282.699 0 511.872 229.173 511.872 511.872 0 0.044 0 0.088 0 0.132v-0.007c-0.037 282.653-229.107 511.79-511.73 511.936h-0.014z" />
<glyph unicode="&#xe931;" glyph-name="align-bottom" d="M448 896h128c35.346 0 64-28.654 64-64v-640c0-35.346-28.654-64-64-64h-128c-35.346 0-64 28.654-64 64v640c0 35.346 28.654 64 64 64zM96 64c-17.673 0-32-14.327-32-32s14.327-32 32-32v0zM928 0c17.673 0 32 14.327 32 32s-14.327 32-32 32v0zM96 0h832v64h-832z" />
<glyph unicode="&#xe932;" glyph-name="align-center" d="M512 896c17.673 0 32-14.327 32-32v0-288h-64v288c0 17.673 14.327 32 32 32v0zM512 0c-17.673 0-32 14.327-32 32v0 288h64v-288c0-17.673-14.327-32-32-32v0zM128 512c0 35.346 28.654 64 64 64v0h640c35.346 0 64-28.654 64-64v0-128c0-35.346-28.654-64-64-64v0h-640c-35.346 0-64 28.654-64 64v0z" />
<glyph unicode="&#xe933;" glyph-name="align-end" d="M928 896c-17.673 0-32-14.327-32-32v0-832c0-17.673 14.327-32 32-32s32 14.327 32 32v0 832c0 17.673-14.327 32-32 32v0zM832 512c0 35.346-28.654 64-64 64v0h-640c-35.346 0-64-28.654-64-64v0-128c0-35.346 28.654-64 64-64v0h640c35.346 0 64 28.654 64 64v0z" />
<glyph unicode="&#xe934;" glyph-name="align-middle" d="M384 128c0-35.346 28.654-64 64-64v0h128c35.346 0 64 28.654 64 64v0 640c0 35.346-28.654 64-64 64v0h-128c-35.346 0-64-28.654-64-64v0zM64 448c0-17.673 14.327-32 32-32v0h288v64h-288c-17.673 0-32-14.327-32-32v0zM960 448c0-17.673-14.327-32-32-32v0h-288v64h288c17.673 0 32-14.327 32-32v0z" />
<glyph unicode="&#xe935;" glyph-name="align-start" d="M96 896c17.673 0 32-14.327 32-32v0-832c0-17.673-14.327-32-32-32s-32 14.327-32 32v0 832c0 17.673 14.327 32 32 32v0zM192 512c0 35.346 28.654 64 64 64v0h640c35.346 0 64-28.654 64-64v0-128c0-35.346-28.654-64-64-64v0h-640c-35.346 0-64 28.654-64 64v0z" />
<glyph unicode="&#xe936;" glyph-name="align-top" d="M448 0h128c35.346 0 64 28.654 64 64v640c0 35.346-28.654 64-64 64h-128c-35.346 0-64-28.654-64-64v-640c0-35.346 28.654-64 64-64zM96 832c-17.673 0-32 14.327-32 32s14.327 32 32 32v0zM928 896c17.673 0 32-14.327 32-32s-14.327-32-32-32v0zM96 896h832v-64h-832z" />
<glyph unicode="&#xe937;" glyph-name="alipay" d="M162.624 960h701.376c89.858-0.362 162.562-73.29 162.562-163.199 0-0.293-0.001-0.586-0.002-0.878v0.045-531.008c-0.384 0-33.984 2.944-190.592 52.032-26.368 8.96-58.624 20.928-94.656 34.304q-29.184 10.88-61.248 22.592c35.825 62.166 64.949 134.112 83.616 210.167l1.184 5.705h-200.256v72.704h245.184v40.576h-245.12v121.216h-100.032c-17.536 0-17.536-17.472-17.536-17.472v-103.744h-248.064v-40.576h248v-72.704h-204.8v-40.576h397.12c-14.528-50.496-34.048-97.92-57.216-140.928-128.832 42.88-266.304 77.568-352.64 56.192-55.296-13.696-90.88-38.208-111.744-63.872-95.936-117.76-27.136-296.512 175.424-296.512 119.808 0 235.2 67.392 324.608 178.368 133.12-64.512 407.68-175.232 408.768-175.68v-6.72c0.001-0.248 0.002-0.54 0.002-0.833 0-89.909-72.704-162.836-162.528-163.199h-701.411c-89.886 0.326-162.626 73.268-162.626 163.199 0 0.293 0.001 0.586 0.002 0.878v-0.045 695.936c-0.001 0.247-0.002 0.54-0.002 0.833 0 89.931 72.74 162.873 162.595 163.199h0.031zM147.776 366.72c-78.080-68.672-31.36-194.176 126.592-194.176 91.776 0 183.552 59.2 255.616 153.984-102.528 50.496-189.376 86.592-283.2 77.248-25.408-2.56-72.96-13.888-99.008-37.12z" />
<glyph unicode="&#xe938;" glyph-name="alphabet" d="M141.056 251.008c49.088 0 76.864 22.784 89.984 47.168h3.776v-42.176h77.824v222.784c0 84.096-60.608 114.112-135.040 114.112-90.88 0-129.6-43.776-133.44-98.176h77.824c4.096 20.672 20.032 35.328 53.76 35.328s55.296-15.936 55.296-49.344v-29.696h-80.896c-76.864 0-118.144-39.36-118.144-98.752 0-62.528 44.352-101.248 109.056-101.248zM167.936 311.616c-28.16 0-54.080 15.040-54.080 45.952 0 25.28 17.216 43.776 53.76 43.776h63.424v-34.432c0-32.192-28.416-55.296-63.104-55.296zM525.888 251.648c77.824 0 124.672 55.616 124.672 147.84v44.928c0 92.16-46.528 147.52-123.456 147.52-47.488 0-84.992-22.208-95.936-56.896h-4.032v170.048h-82.56v-449.088h81.28v50.624h4.096c13.44-34.048 49.664-55.040 95.936-55.040zM498.368 317.248c-42.24 0-71.232 33.152-71.232 81.92v41.152c0 52.8 26.88 85.952 70.272 85.952 43.776 0 68.8-33.152 68.8-90.624v-28.8c0-56.832-24.704-89.664-67.84-89.664zM679.744 402.24c0-94.080 55.68-152.192 147.52-152.192 90.624 0 136.896 49.728 138.112 112.832h-75.904c-3.84-27.2-20.032-46.848-59.712-46.848-42.24 0-67.2 32.768-67.2 86.528v40c0 51.84 23.744 84.992 66.88 84.992 40.64 0 56.256-27.2 58.752-49.664h75.968c-1.28 63.104-50.368 115.584-136.96 115.584-90.24 0-147.456-58.752-147.456-149.632z" />
<glyph unicode="&#xe939;" glyph-name="alphabet-uppercase" d="M78.464 263.68h-78.464l131.584 400.64h90.88l131.008-400.64h-82.56l-30.72 103.040h-130.944l-30.72-103.040zM176.64 587.648h-3.456l-48-162.048h99.456zM382.528 263.68v400.64h163.84c69.76 0 115.712-37.248 115.712-98.56 0-48.768-28.416-78.080-67.2-87.808v-3.52c47.104-4.736 87.36-37.568 87.36-97.792 0-71.616-56.96-113.024-136.512-113.024zM459.52 604.8v-107.2h51.2c51.968 0 74.944 19.712 74.944 54.592 0 32.64-20.992 52.608-57.472 52.608zM459.52 442.432v-119.232h57.792c60.864 0 85.888 19.968 85.888 58.176 0 37.824-24.448 61.056-70.080 61.056zM785.216 487.936v-49.6c0-73.984 31.36-115.392 86.208-115.392 45.12 0 74.432 29.056 77.568 70.144h75.008v-7.68c-3.712-76.48-67.2-129.408-153.152-129.408-105.472 0-164.672 68.672-164.672 182.336v49.92c0 113.6 59.776 183.744 164.672 183.744 86.208 0 149.76-54.336 153.152-133.568v-7.36h-75.008c-3.2 42.56-33.024 73.984-77.568 73.984-54.336 0-86.208-42.88-86.208-117.12z" />
<glyph unicode="&#xe93a;" glyph-name="alt" d="M64 96c0-17.673 14.327-32 32-32v0h243.008c0.007 0 0.015 0 0.023 0 12.040 0 22.527 6.65 27.989 16.477l0.083 0.163 336.896 687.36h224c17.673 0 32 14.327 32 32s-14.327 32-32 32v0h-243.008c-0.007 0-0.015 0-0.023 0-12.040 0-22.527-6.65-27.989-16.477l-0.083-0.163-336.896-687.36h-224c-17.673 0-32-14.327-32-32v0zM704 96c0-17.673 14.327-32 32-32v0h192c17.673 0 32 14.327 32 32s-14.327 32-32 32v0h-192c-17.673 0-32-14.327-32-32v0z" />
<glyph unicode="&#xe93b;" glyph-name="amazon" d="M692.032 194.048c10.048-5.312 23.040-4.736 32 3.2l0.32-0.32c27.646 24.692 61.45 54.076 95.597 83.069l8.275 6.851c11.072 9.152 9.152 23.808 0.384 36.032l-8 10.88c-22.080 29.76-43.072 57.984-43.072 114.624v211.2l0.064 21.44c0.512 80.96 0.896 154.944-59.712 211.52-52.032 49.92-138.048 67.456-203.968 67.456-128.832 0-272.64-48-302.976-207.36-3.008-16.896 9.152-25.856 20.224-28.352l131.456-14.080c12.16 0.576 21.12 12.544 23.424 24.768 11.264 54.848 57.344 81.344 108.992 81.344 27.84 0 59.456-10.24 76.032-35.2 16.896-24.96 16.64-58.24 16.448-88.064v-27.648q-19.2-2.112-39.744-4.16c-71.232-7.296-153.408-15.744-215.040-42.88-84.864-36.608-144.576-111.488-144.576-221.44 0-140.8 88.768-211.072 202.752-211.072 96.384 0 148.992 22.656 223.296 98.56l10.688-15.744c17.536-25.92 29.184-43.2 67.008-74.624zM385.92 420.416c0 115.456 103.488 136.384 201.408 136.384v-36.48c0.064-49.664 0.128-91.776-25.344-136.512-21.504-38.080-55.68-61.504-93.76-61.504-51.968 0-82.304 39.616-82.304 98.112zM27.84 180.864c168.256-102.592 428.672-261.376 843.712-63.808 17.92 7.424 30.4-4.992 12.736-27.584-17.856-22.912-160.32-153.472-399.808-153.472-239.232 0-422.528 163.456-478.464 231.296-15.36 17.6 2.304 25.6 12.736 19.136zM884.992 195.648c36.288 4.48 93.952 1.728 105.28-13.056 8.64-11.264-0.256-61.824-14.912-98.112-14.72-36.032-36.608-61.504-48.768-71.36s-21.312-6.016-14.72 8.768c6.72 14.72 43.776 106.432 29.12 125.632-13.632 17.792-75.328 11.328-104 8.32l-5.76-0.576q-9.088-0.832-14.912-1.536c-12.352-1.344-15.68-1.728-17.536 2.048-4.736 13.376 49.856 35.584 86.208 39.872z" />
<glyph unicode="&#xe93c;" glyph-name="amd" d="M21.376 960l278.912-278.976h457.6v-457.6l278.912-278.912v1015.488zM12.8 337.92l287.168 287.232v-401.984h401.92l-287.168-287.168h-401.92z" />
<glyph unicode="&#xe93d;" glyph-name="android" d="M176.64 764.096c4.43 2.466 9.716 3.917 15.341 3.917 12.071 0 22.581-6.684 28.031-16.552l0.083-0.165 82.112-150.528c61.575 24.83 132.978 39.236 207.745 39.236 0.72 0 1.439-0.001 2.158-0.004h-0.111c0.608 0.002 1.328 0.004 2.047 0.004 74.767 0 146.169-14.405 211.583-40.592l-3.838 1.356 82.112 150.528c5.42 10.418 16.134 17.411 28.481 17.411 17.673 0 32-14.327 32-32 0-5.892-1.592-11.412-4.37-16.154l0.082 0.151-80.128-146.88c146.432-78.848 244.032-220.352 244.032-381.824h-1024c0 161.472 97.6 302.976 244.032 381.824l-80.192 146.816c-2.449 4.417-3.89 9.686-3.89 15.292 0 12.060 6.672 22.562 16.526 28.017l0.164 0.083zM320 320c35.346 0 64 28.654 64 64s-28.654 64-64 64v0c-35.346 0-64-28.654-64-64s28.654-64 64-64v0zM704 320c35.346 0 64 28.654 64 64s-28.654 64-64 64v0c-35.346 0-64-28.654-64-64s28.654-64 64-64v0z" />
<glyph unicode="&#xe93e;" glyph-name="android2" d="M653.632 865.856l44.224 80.64q4.416 7.936-3.072 12.288-8.192 3.648-12.48-3.712l-44.8-81.28c-36.399 16.421-78.912 25.988-123.659 25.988-0.536 0-1.072-0.001-1.607-0.004h0.082q-66.048 0-125.184-25.856l-44.8 81.28q-4.352 7.168-12.48 3.52-7.488-4.416-3.136-12.352l44.224-80.576c-44.092-22.016-80.254-54.137-106.447-93.467l-0.625-0.997c-24.979-36.945-39.875-82.487-39.875-131.509 0-0.387 0.001-0.773 0.003-1.159v0.060h576q0 72-39.872 132.608c-26.716 40.224-62.666 72.319-104.938 93.748l-1.558 0.716zM398.080 748.608c-4.295-4.348-10.258-7.041-16.849-7.041-0.084 0-0.168 0-0.252 0.001h0.013c-0.155-0.004-0.338-0.006-0.522-0.006-6.423 0-12.215 2.704-16.3 7.035l-0.010 0.011c-4.234 4.276-6.849 10.161-6.849 16.657 0 0.084 0 0.168 0.001 0.251v-0.013c-0.001 0.090-0.002 0.196-0.002 0.302 0 6.496 2.616 12.382 6.852 16.66l-0.002-0.002c4.095 4.342 9.887 7.046 16.31 7.046 0.184 0 0.367-0.002 0.549-0.007l-0.027 0.001q9.92 0 17.088-7.040c4.42-4.206 7.169-10.133 7.169-16.702 0-0.091-0.001-0.181-0.002-0.271v0.014c0.001-0.058 0.001-0.126 0.001-0.194 0-6.569-2.749-12.496-7.159-16.693l-0.010-0.009zM660.544 748.608c-4.095-4.342-9.886-7.045-16.309-7.045-0.161 0-0.323 0.002-0.483 0.005h0.024c-0.090-0.001-0.196-0.002-0.302-0.002-6.592 0-12.554 2.693-16.847 7.040l-0.002 0.002c-4.42 4.206-7.169 10.133-7.169 16.702 0 0.068 0 0.137 0.001 0.205v-0.010q0 9.856 7.168 16.96c4.295 4.349 10.258 7.042 16.85 7.042 0.106 0 0.212-0.001 0.318-0.002h-0.016q9.92 0 16.768-7.040c4.234-4.276 6.85-10.162 6.85-16.658 0-0.106-0.001-0.212-0.002-0.318v0.016q0-9.792-6.848-16.896zM224 206.72q0-28.224 19.904-48 19.904-19.584 48.64-19.648h48.512l0.64-139.648q0-26.496 18.688-44.992c11.16-11.383 26.698-18.439 43.884-18.439 0.322 0 0.644 0.002 0.965 0.007l-0.048-0.001c0.382-0.008 0.831-0.013 1.282-0.013 17.273 0 32.898 7.054 44.152 18.439l0.006 0.006c11.533 11.082 18.698 26.637 18.698 43.865 0 0.396-0.004 0.792-0.011 1.187l0.001-0.059v139.648h85.952v-139.648q0-26.496 18.688-44.992c11.26-11.391 26.885-18.445 44.158-18.445 0.451 0 0.9 0.005 1.349 0.014l-0.067-0.001c0.382-0.008 0.831-0.013 1.282-0.013 17.273 0 32.898 7.054 44.152 18.439l0.006 0.006c11.533 11.082 18.698 26.637 18.698 43.865 0 0.396-0.004 0.792-0.011 1.187l0.001-0.059v139.648h48.64q27.904 0 47.936 19.712 19.84 19.648 19.904 48v409.856h-576zM895.68 628.288c-0.343 0.007-0.748 0.011-1.153 0.011-17.036 0-32.485-6.792-43.788-17.815l0.013 0.013c-11.55-10.571-18.767-25.713-18.767-42.541 0-0.457 0.005-0.912 0.016-1.367l-0.001 0.067v-260.032q0-25.984 18.752-44.16c11.234-11.235 26.755-18.185 43.899-18.185 0.362 0 0.723 0.003 1.083 0.009l-0.054-0.001q26.88 0 45.568 18.176c11.557 10.78 18.762 26.097 18.762 43.097 0 0.374-0.003 0.747-0.010 1.119l0.001-0.056v260.032c0.009 0.387 0.015 0.842 0.015 1.299 0 16.828-7.216 31.97-18.723 42.502l-0.044 0.039c-11.478 11.019-27.094 17.805-44.294 17.805-0.448 0-0.895-0.005-1.34-0.014l0.067 0.001zM82.752 610.176c11.515 11.207 27.26 18.119 44.62 18.119 0.333 0 0.666-0.003 0.998-0.008l-0.050 0.001q26.24 0 44.928-18.112c11.547-10.57 18.76-25.71 18.76-42.535 0-0.346-0.003-0.692-0.009-1.037l0.001 0.052v-260.032c0.006-0.324 0.010-0.705 0.010-1.088 0-16.932-7.070-32.212-18.419-43.051l-0.023-0.022c-11.235-11.239-26.758-18.191-43.905-18.191-0.472 0-0.943 0.005-1.413 0.016l0.070-0.001c-0.263-0.004-0.573-0.006-0.883-0.006-17.391 0-33.163 6.937-44.698 18.195l0.013-0.013c-11.557 10.78-18.762 26.097-18.762 43.097 0 0.374 0.003 0.747 0.010 1.119l-0.001-0.056v260.032q0 25.344 18.752 43.52z" />
<glyph unicode="&#xe93f;" glyph-name="app" d="M704 832c106.039 0 192-85.961 192-192v0-384c0-106.039-85.961-192-192-192v0h-384c-106.039 0-192 85.961-192 192v0 384c0 106.039 85.961 192 192 192v0zM320 896c-141.385 0-256-114.615-256-256v0-384c0-141.385 114.615-256 256-256v0h384c141.385 0 256 114.615 256 256v0 384c0 141.385-114.615 256-256 256v0z" />
<glyph unicode="&#xe940;" glyph-name="app-indicator" d="M352 832c-123.712 0-224-100.288-224-224v0-320c0-123.712 100.288-224 224-224v0h320c123.712 0 224 100.288 224 224v0 160c0 17.673 14.327 32 32 32s32-14.327 32-32v0-160c0-159.058-128.942-288-288-288v0h-320c-159.058 0-288 128.942-288 288v0 320c0 159.058 128.942 288 288 288v0h160c17.673 0 32-14.327 32-32s-14.327-32-32-32v0zM1024 768c0-106.039-85.961-192-192-192s-192 85.961-192 192v0c0 106.039 85.961 192 192 192s192-85.961 192-192v0z" />
<glyph unicode="&#xe941;" glyph-name="apple" d="M715.648 959.488c-2.176 2.432-80.576-0.96-148.8-75.008-68.224-73.984-57.728-158.848-56.192-161.024s97.28-5.568 158.4 80.512 48.768 153.024 46.592 155.52zM927.744 208.576c-3.072 6.144-148.8 78.976-135.232 219.008s107.2 178.496 108.672 182.656-38.208 50.56-80.256 74.048c-28.953 15.821-63.123 25.882-99.458 27.752l-0.574 0.024c-6.912 0.192-30.912 6.080-80.256-7.424-32.512-8.896-105.792-37.696-125.952-38.848-20.224-1.152-80.384 33.408-145.088 42.56-41.408 8-85.312-8.384-116.736-20.992-31.36-12.544-91.008-48.256-132.736-143.168-41.728-94.848-19.904-245.12-4.288-291.84s40-123.136 81.472-178.944c36.864-62.976 85.76-106.688 106.176-121.536s78.016-24.704 117.952-4.288c32.128 19.712 90.112 31.040 113.024 30.208 22.848-0.832 67.904-9.856 114.048-34.496 36.544-12.608 71.104-7.36 105.728 6.72 34.624 14.144 84.736 67.776 143.232 176.512q33.28 75.84 30.272 82.048z" />
<glyph unicode="&#xe942;" glyph-name="archive" d="M0 832c0 35.346 28.654 64 64 64v0h896c35.346 0 64-28.654 64-64v0-128c0-35.346-28.654-64-64-64v0-480c0-88.366-71.634-160-160-160v0h-576c-88.366 0-160 71.634-160 160v0 480c-35.346 0-64 28.654-64 64v0zM128 640v-480c0-53.019 42.981-96 96-96v0h576c53.019 0 96 42.981 96 96v0 480zM960 832h-896v-128h896zM320 480c0 17.673 14.327 32 32 32v0h320c17.673 0 32-14.327 32-32s-14.327-32-32-32v0h-320c-17.673 0-32 14.327-32 32v0z" />
<glyph unicode="&#xe943;" glyph-name="archive-fill" d="M809.152 0c85.504 0 150.848 73.92 150.848 160v480h-896v-480c0-86.080 65.344-160 150.848-160zM352 512h320c17.673 0 32-14.327 32-32s-14.327-32-32-32v0h-320c-17.673 0-32 14.327-32 32s14.327 32 32 32v0zM51.2 896c-28.277 0-51.2-22.923-51.2-51.2v0-76.8c0-28.277 22.923-51.2 51.2-51.2v0h921.6c28.277 0 51.2 22.923 51.2 51.2v0 76.8c0 28.277-22.923 51.2-51.2 51.2v0z" />
<glyph unicode="&#xe944;" glyph-name="arrow-90deg-down" d="M310.656 9.344c-5.794-5.808-13.805-9.401-22.656-9.401s-16.862 3.593-22.655 9.401l-256.001 256.001c-5.798 5.798-9.384 13.808-9.384 22.656 0 17.695 14.345 32.040 32.040 32.040 8.848 0 16.858-3.586 22.656-9.384l201.344-201.408v626.752c0 88.366 71.634 160 160 160v0h512c17.673 0 32-14.327 32-32s-14.327-32-32-32v0h-512c-53.019 0-96-42.981-96-96v0-626.752l201.344 201.408c5.798 5.798 13.808 9.384 22.656 9.384 17.695 0 32.040-14.345 32.040-32.040 0-8.848-3.586-16.858-9.384-22.656v0z" />
<glyph unicode="&#xe945;" glyph-name="arrow-90deg-left" d="M73.344 649.344c-5.808 5.794-9.401 13.805-9.401 22.656s3.593 16.862 9.401 22.655l256.001 256.001c5.798 5.798 13.808 9.384 22.656 9.384 17.695 0 32.040-14.345 32.040-32.040 0-8.848-3.586-16.858-9.384-22.656l-201.408-201.344h626.752c88.366 0 160-71.634 160-160v0-512c0-17.673-14.327-32-32-32s-32 14.327-32 32v0 512c0 53.019-42.981 96-96 96v0h-626.752l201.408-201.344c5.798-5.798 9.384-13.808 9.384-22.656 0-17.695-14.345-32.040-32.040-32.040-8.848 0-16.858 3.586-22.656 9.384v0z" />
<glyph unicode="&#xe946;" glyph-name="arrow-90deg-right" d="M950.656 649.344c5.808 5.794 9.401 13.805 9.401 22.656s-3.593 16.862-9.401 22.655l-256.001 256.001c-5.798 5.798-13.808 9.384-22.656 9.384-17.695 0-32.040-14.345-32.040-32.040 0-8.848 3.586-16.858 9.384-22.656l201.408-201.344h-626.752c-88.366 0-160-71.634-160-160v0-512c0-17.673 14.327-32 32-32s32 14.327 32 32v0 512c0 53.019 42.981 96 96 96v0h626.752l-201.408-201.344c-5.798-5.798-9.384-13.808-9.384-22.656 0-17.695 14.345-32.040 32.040-32.040 8.848 0 16.858 3.586 22.656 9.384v0z" />
<glyph unicode="&#xe947;" glyph-name="arrow-90deg-up" d="M310.656 886.656c-5.794 5.808-13.805 9.401-22.656 9.401s-16.862-3.593-22.655-9.401l-256.001-256.001c-5.798-5.798-9.384-13.808-9.384-22.656 0-17.695 14.345-32.040 32.040-32.040 8.848 0 16.858 3.586 22.656 9.384l201.344 201.408v-626.752c0-88.366 71.634-160 160-160v0h512c17.673 0 32 14.327 32 32s-14.327 32-32 32v0h-512c-53.019 0-96 42.981-96 96v0 626.752l201.344-201.408c5.798-5.798 13.808-9.384 22.656-9.384 17.695 0 32.040 14.345 32.040 32.040 0 8.848-3.586 16.858-9.384 22.656v0z" />
<glyph unicode="&#xe948;" glyph-name="arrow-bar-down" d="M64 736c0 17.673 14.327 32 32 32v0h832c17.673 0 32-14.327 32-32s-14.327-32-32-32v0h-832c-17.673 0-32 14.327-32 32v0zM512 576c17.673 0 32-14.327 32-32v0-370.752l137.344 137.408c5.798 5.798 13.808 9.384 22.656 9.384 17.695 0 32.040-14.345 32.040-32.040 0-8.848-3.586-16.858-9.384-22.656v0l-192-192c-5.794-5.808-13.805-9.401-22.656-9.401s-16.862 3.593-22.655 9.401l-192.001 192.001c-5.798 5.798-9.384 13.808-9.384 22.656 0 17.695 14.345 32.040 32.040 32.040 8.848 0 16.858-3.586 22.656-9.384v0l137.344-137.408v370.752c0 17.673 14.327 32 32 32v0z" />
<glyph unicode="&#xe949;" glyph-name="arrow-bar-left" d="M800 0c-17.673 0-32 14.327-32 32v0 832c0 17.673 14.327 32 32 32s32-14.327 32-32v0-832c0-17.673-14.327-32-32-32v0zM640 448c0-17.673-14.327-32-32-32v0h-370.752l137.408-137.344c5.798-5.798 9.384-13.808 9.384-22.656 0-17.695-14.345-32.040-32.040-32.040-8.848 0-16.858 3.586-22.656 9.384v0l-192 192c-5.808 5.794-9.401 13.805-9.401 22.656s3.593 16.862 9.401 22.655l192.001 192.001c5.798 5.798 13.808 9.384 22.656 9.384 17.695 0 32.040-14.345 32.040-32.040 0-8.848-3.586-16.858-9.384-22.656v0l-137.408-137.344h370.752c17.673 0 32-14.327 32-32v0z" />
<glyph unicode="&#xe94a;" glyph-name="arrow-bar-right" d="M384 448c0-17.673 14.327-32 32-32v0h370.752l-137.408-137.344c-5.798-5.798-9.384-13.808-9.384-22.656 0-17.695 14.345-32.040 32.040-32.040 8.848 0 16.858 3.586 22.656 9.384v0l192 192c5.808 5.794 9.401 13.805 9.401 22.656s-3.593 16.862-9.401 22.655l-192.001 192.001c-5.798 5.798-13.808 9.384-22.656 9.384-17.695 0-32.040-14.345-32.040-32.040 0-8.848 3.586-16.858 9.384-22.656v0l137.408-137.344h-370.752c-17.673 0-32-14.327-32-32v0zM224 0c-17.673 0-32 14.327-32 32v0 832c0 17.673 14.327 32 32 32s32-14.327 32-32v0-832c0-17.673-14.327-32-32-32v0z" />
<glyph unicode="&#xe94b;" glyph-name="arrow-bar-up" d="M512 320c17.673 0 32 14.327 32 32v0 370.752l137.344-137.408c5.798-5.798 13.808-9.384 22.656-9.384 17.695 0 32.040 14.345 32.040 32.040 0 8.848-3.586 16.858-9.384 22.656v0l-192 192c-5.794 5.808-13.805 9.401-22.656 9.401s-16.862-3.593-22.655-9.401l-192.001-192.001c-5.798-5.798-9.384-13.808-9.384-22.656 0-17.695 14.345-32.040 32.040-32.040 8.848 0 16.858 3.586 22.656 9.384v0l137.344 137.408v-370.752c0-17.673 14.327-32 32-32v0zM64 160c0 17.673 14.327 32 32 32v0h832c17.673 0 32-14.327 32-32s-14.327-32-32-32v0h-832c-17.673 0-32 14.327-32 32v0z" />
<glyph unicode="&#xe94c;" glyph-name="arrow-clockwise" d="M512 768c-176.678-0.070-319.877-143.312-319.877-320 0-176.731 143.269-320 320-320s320 143.269 320 320c0 48.42-10.754 94.329-30.005 135.468l0.825-1.964c-1.519 3.596-2.402 7.777-2.402 12.164 0 17.673 14.327 32 32 32 12.373 0 23.105-7.022 28.43-17.298l0.084-0.178c22.106-47.007 35.009-102.093 35.009-160.192 0-212.077-171.923-384-384-384s-384 171.923-384 384c0 212.054 171.886 383.963 383.931 384h0.003zM512 674.176v251.648c0.003 8.834 7.166 15.994 16 15.994 3.907 0 7.487-1.4 10.265-3.726l-0.025 0.020 151.040-125.824c7.68-6.4 7.68-18.176 0-24.576l-151.040-125.824c-2.753-2.306-6.333-3.706-10.24-3.706-8.834 0-15.997 7.16-16 15.994v0z" />
<glyph unicode="&#xe94d;" glyph-name="arrow-counterclockwise" d="M512 768c176.678-0.070 319.877-143.312 319.877-320 0-176.731-143.269-320-320-320s-320 143.269-320 320c0 48.42 10.754 94.329 30.005 135.468l-0.825-1.964c1.519 3.596 2.402 7.777 2.402 12.164 0 17.673-14.327 32-32 32-12.373 0-23.105-7.022-28.43-17.298l-0.084-0.178c-22.106-47.007-35.009-102.093-35.009-160.192 0-212.077 171.923-384 384-384s384 171.923 384 384c0 212.054-171.886 383.963-383.931 384h-0.003zM512 674.176v251.648c-0.003 8.834-7.166 15.994-16 15.994-3.907 0-7.487-1.4-10.265-3.726l0.025 0.020-151.040-125.824c-3.526-2.955-5.753-7.362-5.753-12.288s2.226-9.333 5.728-12.268l0.025-0.020 151.040-125.824c2.753-2.306 6.333-3.706 10.24-3.706 8.834 0 15.997 7.16 16 15.994v0z" />
<glyph unicode="&#xe94e;" glyph-name="arrow-down" d="M512 896c17.673 0 32-14.327 32-32v0-754.752l201.344 201.408c5.798 5.798 13.808 9.384 22.656 9.384 17.695 0 32.040-14.345 32.040-32.040 0-8.848-3.586-16.858-9.384-22.656v0l-256-256c-5.794-5.808-13.805-9.401-22.656-9.401s-16.862 3.593-22.655 9.401l-256.001 256.001c-5.798 5.798-9.384 13.808-9.384 22.656 0 17.695 14.345 32.040 32.040 32.040 8.848 0 16.858-3.586 22.656-9.384v0l201.344-201.408v754.752c0 17.673 14.327 32 32 32v0z" />
<glyph unicode="&#xe94f;" glyph-name="arrow-down-circle" d="M64 448c0-247.424 200.576-448 448-448s448 200.576 448 448v0c0 247.424-200.576 448-448 448s-448-200.576-448-448v0zM1024 448c0-282.77-229.23-512-512-512s-512 229.23-512 512v0c0 282.77 229.23 512 512 512s512-229.23 512-512v0zM544 672c0 17.673-14.327 32-32 32s-32-14.327-32-32v0-370.752l-137.344 137.408c-5.798 5.798-13.808 9.384-22.656 9.384-17.695 0-32.040-14.345-32.040-32.040 0-8.848 3.586-16.858 9.384-22.656v0l192-192c5.794-5.808 13.805-9.401 22.656-9.401s16.862 3.593 22.655 9.401l192.001 192.001c5.798 5.798 9.384 13.808 9.384 22.656 0 17.695-14.345 32.040-32.040 32.040-8.848 0-16.858-3.586-22.656-9.384v0l-137.344-137.408z" />
<glyph unicode="&#xe950;" glyph-name="arrow-down-circle-fill" d="M1024 448c0-282.77-229.23-512-512-512s-512 229.23-512 512v0c0 282.77 229.23 512 512 512s512-229.23 512-512v0zM544 672c0 17.673-14.327 32-32 32s-32-14.327-32-32v0-370.752l-137.344 137.408c-5.798 5.798-13.808 9.384-22.656 9.384-17.695 0-32.040-14.345-32.040-32.040 0-8.848 3.586-16.858 9.384-22.656v0l192-192c5.794-5.808 13.805-9.401 22.656-9.401s16.862 3.593 22.655 9.401l192.001 192.001c5.798 5.798 9.384 13.808 9.384 22.656 0 17.695-14.345 32.040-32.040 32.040-8.848 0-16.858-3.586-22.656-9.384v0l-137.344-137.408z" />
<glyph unicode="&#xe951;" glyph-name="arrow-down-left" d="M128 96c0-17.673 14.327-32 32-32v0h384c17.673 0 32 14.327 32 32s-14.327 32-32 32v0h-306.752l649.408 649.344c5.798 5.798 9.384 13.808 9.384 22.656 0 17.695-14.345 32.040-32.040 32.040-8.848 0-16.858-3.586-22.656-9.384v0l-649.344-649.408v306.752c0 17.673-14.327 32-32 32s-32-14.327-32-32v0z" />
<glyph unicode="&#xe952;" glyph-name="arrow-down-left-circle" d="M64 448c0-247.424 200.576-448 448-448s448 200.576 448 448v0c0 247.424-200.576 448-448 448s-448-200.576-448-448v0zM1024 448c0-282.77-229.23-512-512-512s-512 229.23-512 512v0c0 282.77 229.23 512 512 512s512-229.23 512-512v0zM646.144 630.656c5.792 5.785 13.79 9.362 22.624 9.362 17.683 0 32.018-14.335 32.018-32.018 0-8.849-3.59-16.86-9.393-22.656v0l-262.144-262.144h177.152c17.673 0 32-14.327 32-32s-14.327-32-32-32v0h-254.4c-17.673 0-32 14.327-32 32v0 254.4c0 17.673 14.327 32 32 32s32-14.327 32-32v0-177.152z" />
<glyph unicode="&#xe953;" glyph-name="arrow-down-left-circle-fill" d="M1024 448c0 282.77-229.23 512-512 512s-512-229.23-512-512v0c0-282.77 229.23-512 512-512s512 229.23 512 512v0zM646.144 627.392c5.827 6.027 13.985 9.769 23.017 9.769 17.673 0 32-14.327 32-32 0-9.032-3.742-17.19-9.76-23.009l-262.153-262.153h177.152c17.673 0 32-14.327 32-32s-14.327-32-32-32v0h-254.4c-17.673 0-32 14.327-32 32v0 254.4c0 17.673 14.327 32 32 32s32-14.327 32-32v0-177.152z" />
<glyph unicode="&#xe954;" glyph-name="arrow-down-left-square" d="M960 832c0 35.346-28.654 64-64 64v0h-768c-35.346 0-64-28.654-64-64v0-768c0-35.346 28.654-64 64-64v0h768c35.346 0 64 28.654 64 64v0zM0 832c0 70.692 57.308 128 128 128v0h768c70.692 0 128-57.308 128-128v0-768c0-70.692-57.308-128-128-128v0h-768c-70.692 0-128 57.308-128 128v0zM646.144 630.656c5.792 5.785 13.79 9.362 22.624 9.362 17.683 0 32.018-14.335 32.018-32.018 0-8.849-3.59-16.86-9.393-22.656v0l-262.144-262.144h177.152c17.673 0 32-14.327 32-32s-14.327-32-32-32v0h-254.4c-17.673 0-32 14.327-32 32v0 254.4c0 17.673 14.327 32 32 32s32-14.327 32-32v0-177.152z" />
<glyph unicode="&#xe955;" glyph-name="arrow-down-left-square-fill" d="M128-64c-70.692 0-128 57.308-128 128v0 768c0 70.692 57.308 128 128 128v0h768c70.692 0 128-57.308 128-128v0-768c0-70.692-57.308-128-128-128v0zM646.144 627.392l-262.144-262.144v177.152c0 17.673-14.327 32-32 32s-32-14.327-32-32v0-254.4c0-17.673 14.327-32 32-32v0h254.4c17.673 0 32 14.327 32 32s-14.327 32-32 32v0h-177.152l262.144 262.144c6.027 5.827 9.769 13.985 9.769 23.017 0 17.673-14.327 32-32 32-9.032 0-17.19-3.742-23.009-9.76l-0.009-0.009z" />
<glyph unicode="&#xe956;" glyph-name="arrow-down-right" d="M896 96c0-17.673-14.327-32-32-32v0h-384c-17.673 0-32 14.327-32 32s14.327 32 32 32v0h306.752l-649.408 649.344c-5.798 5.798-9.384 13.808-9.384 22.656 0 17.695 14.345 32.040 32.040 32.040 8.848 0 16.858-3.586 22.656-9.384v0l649.344-649.408v306.752c0 17.673 14.327 32 32 32s32-14.327 32-32v0z" />
<glyph unicode="&#xe957;" glyph-name="arrow-down-right-circle" d="M64 448c0-247.424 200.576-448 448-448s448 200.576 448 448v0c0 247.424-200.576 448-448 448s-448-200.576-448-448v0zM1024 448c0-282.77-229.23-512-512-512s-512 229.23-512 512v0c0 282.77 229.23 512 512 512s512-229.23 512-512v0zM374.656 630.656c-5.798 5.798-13.808 9.384-22.656 9.384-17.695 0-32.040-14.345-32.040-32.040 0-8.848 3.586-16.858 9.384-22.656v0l262.208-262.144h-177.152c-17.673 0-32-14.327-32-32s14.327-32 32-32v0h254.4c17.673 0 32 14.327 32 32v0 254.4c0 17.673-14.327 32-32 32s-32-14.327-32-32v0-177.152z" />
<glyph unicode="&#xe958;" glyph-name="arrow-down-right-circle-fill" d="M0 448c0 282.77 229.23 512 512 512s512-229.23 512-512v0c0-282.77-229.23-512-512-512s-512 229.23-512 512v0zM377.856 627.392c-5.827 6.027-13.985 9.769-23.017 9.769-17.673 0-32-14.327-32-32 0-9.032 3.742-17.19 9.76-23.009l262.153-262.153h-177.152c-17.673 0-32-14.327-32-32s14.327-32 32-32v0h254.4c17.673 0 32 14.327 32 32v0 254.4c0 17.673-14.327 32-32 32s-32-14.327-32-32v0-177.152z" />
<glyph unicode="&#xe959;" glyph-name="arrow-down-right-square" d="M960 832c0 35.346-28.654 64-64 64v0h-768c-35.346 0-64-28.654-64-64v0-768c0-35.346 28.654-64 64-64v0h768c35.346 0 64 28.654 64 64v0zM0 832c0 70.692 57.308 128 128 128v0h768c70.692 0 128-57.308 128-128v0-768c0-70.692-57.308-128-128-128v0h-768c-70.692 0-128 57.308-128 128v0zM374.656 630.656c-5.798 5.798-13.808 9.384-22.656 9.384-17.695 0-32.040-14.345-32.040-32.040 0-8.848 3.586-16.858 9.384-22.656v0l262.208-262.144h-177.152c-17.673 0-32-14.327-32-32s14.327-32 32-32v0h254.4c17.673 0 32 14.327 32 32v0 254.4c0 17.673-14.327 32-32 32s-32-14.327-32-32v0-177.152z" />
<glyph unicode="&#xe95a;" glyph-name="arrow-down-right-square-fill" d="M896-64c70.692 0 128 57.308 128 128v0 768c0 70.692-57.308 128-128 128v0h-768c-70.692 0-128-57.308-128-128v0-768c0-70.692 57.308-128 128-128v0zM377.856 627.392l262.144-262.144v177.152c0 17.673 14.327 32 32 32s32-14.327 32-32v0-254.4c0-17.673-14.327-32-32-32v0h-254.4c-17.673 0-32 14.327-32 32s14.327 32 32 32v0h177.152l-262.144 262.144c-5.558 5.749-8.983 13.59-8.983 22.231 0 17.673 14.327 32 32 32 8.641 0 16.482-3.425 22.24-8.991l-0.009 0.009z" />
<glyph unicode="&#xe95b;" glyph-name="arrow-down-short" d="M512 704c17.673 0 32-14.327 32-32v0-370.752l137.344 137.408c5.798 5.798 13.808 9.384 22.656 9.384 17.695 0 32.040-14.345 32.040-32.040 0-8.848-3.586-16.858-9.384-22.656v0l-192-192c-5.794-5.808-13.805-9.401-22.656-9.401s-16.862 3.593-22.655 9.401l-192.001 192.001c-5.798 5.798-9.384 13.808-9.384 22.656 0 17.695 14.345 32.040 32.040 32.040 8.848 0 16.858-3.586 22.656-9.384v0l137.344-137.408v370.752c0 17.673 14.327 32 32 32v0z" />
<glyph unicode="&#xe95c;" glyph-name="arrow-down-square" d="M960 832c0 35.346-28.654 64-64 64v0h-768c-35.346 0-64-28.654-64-64v0-768c0-35.346 28.654-64 64-64v0h768c35.346 0 64 28.654 64 64v0zM0 832c0 70.692 57.308 128 128 128v0h768c70.692 0 128-57.308 128-128v0-768c0-70.692-57.308-128-128-128v0h-768c-70.692 0-128 57.308-128 128v0zM544 672c0 17.673-14.327 32-32 32s-32-14.327-32-32v0-370.752l-137.344 137.408c-5.798 5.798-13.808 9.384-22.656 9.384-17.695 0-32.040-14.345-32.040-32.040 0-8.848 3.586-16.858 9.384-22.656v0l192-192c5.794-5.808 13.805-9.401 22.656-9.401s16.862 3.593 22.655 9.401l192.001 192.001c5.798 5.798 9.384 13.808 9.384 22.656 0 17.695-14.345 32.040-32.040 32.040-8.848 0-16.858-3.586-22.656-9.384v0l-137.344-137.408z" />
<glyph unicode="&#xe95d;" glyph-name="arrow-down-square-fill" d="M128 960c-70.692 0-128-57.308-128-128v0-768c0-70.692 57.308-128 128-128v0h768c70.692 0 128 57.308 128 128v0 768c0 70.692-57.308 128-128 128v0zM544 672v-370.752l137.344 137.408c5.798 5.798 13.808 9.384 22.656 9.384 17.695 0 32.040-14.345 32.040-32.040 0-8.848-3.586-16.858-9.384-22.656v0l-192-192c-5.794-5.808-13.805-9.401-22.656-9.401s-16.862 3.593-22.655 9.401l-192.001 192.001c-5.798 5.798-9.384 13.808-9.384 22.656 0 17.695 14.345 32.040 32.040 32.040 8.848 0 16.858-3.586 22.656-9.384v0l137.344-137.408v370.752c0 17.673 14.327 32 32 32s32-14.327 32-32v0z" />
<glyph unicode="&#xe95e;" glyph-name="arrow-down-up" d="M736 0c17.673 0 32 14.327 32 32v0 754.752l201.344-201.408c5.798-5.798 13.808-9.384 22.656-9.384 17.695 0 32.040 14.345 32.040 32.040 0 8.848-3.586 16.858-9.384 22.656v0l-256 256c-5.794 5.808-13.805 9.401-22.656 9.401s-16.862-3.593-22.655-9.401l-256.001-256.001c-5.798-5.798-9.384-13.808-9.384-22.656 0-17.695 14.345-32.040 32.040-32.040 8.848 0 16.858 3.586 22.656 9.384v0l201.344 201.408v-754.752c0-17.673 14.327-32 32-32v0zM288 896c17.673 0 32-14.327 32-32v0-754.752l201.344 201.408c5.798 5.798 13.808 9.384 22.656 9.384 17.695 0 32.040-14.345 32.040-32.040 0-8.848-3.586-16.858-9.384-22.656v0l-256-256c-5.794-5.808-13.805-9.401-22.656-9.401s-16.862 3.593-22.655 9.401l-256.001 256.001c-5.798 5.798-9.384 13.808-9.384 22.656 0 17.695 14.345 32.040 32.040 32.040 8.848 0 16.858-3.586 22.656-9.384l201.344-201.408v754.752c0 17.673 14.327 32 32 32v0z" />
<glyph unicode="&#xe95f;" glyph-name="arrow-left" d="M960 448c0 17.673-14.327 32-32 32v0h-754.752l201.408 201.344c5.798 5.798 9.384 13.808 9.384 22.656 0 17.695-14.345 32.040-32.040 32.040-8.848 0-16.858-3.586-22.656-9.384v0l-256-256c-5.808-5.794-9.401-13.805-9.401-22.656s3.593-16.862 9.401-22.655l256.001-256.001c5.798-5.798 13.808-9.384 22.656-9.384 17.695 0 32.040 14.345 32.040 32.040 0 8.848-3.586 16.858-9.384 22.656v0l-201.408 201.344h754.752c17.673 0 32 14.327 32 32v0z" />
<glyph unicode="&#xe960;" glyph-name="arrow-left-circle" d="M64 448c0-247.424 200.576-448 448-448s448 200.576 448 448v0c0 247.424-200.576 448-448 448s-448-200.576-448-448v0zM1024 448c0-282.77-229.23-512-512-512s-512 229.23-512 512v0c0 282.77 229.23 512 512 512s512-229.23 512-512v0zM736 480c17.673 0 32-14.327 32-32s-14.327-32-32-32v0h-370.752l137.408-137.344c5.798-5.798 9.384-13.808 9.384-22.656 0-17.695-14.345-32.040-32.040-32.040-8.848 0-16.858 3.586-22.656 9.384v0l-192 192c-5.808 5.794-9.401 13.805-9.401 22.656s3.593 16.862 9.401 22.655l192.001 192.001c5.798 5.798 13.808 9.384 22.656 9.384 17.695 0 32.040-14.345 32.040-32.040 0-8.848-3.586-16.858-9.384-22.656v0l-137.408-137.344z" />
<glyph unicode="&#xe961;" glyph-name="arrow-left-circle-fill" d="M512 960c-282.77 0-512-229.23-512-512s229.23-512 512-512v0c282.77 0 512 229.23 512 512s-229.23 512-512 512v0zM736 480c17.673 0 32-14.327 32-32s-14.327-32-32-32v0h-370.752l137.408-137.344c5.798-5.798 9.384-13.808 9.384-22.656 0-17.695-14.345-32.040-32.040-32.040-8.848 0-16.858 3.586-22.656 9.384v0l-192 192c-5.808 5.794-9.401 13.805-9.401 22.656s3.593 16.862 9.401 22.655l192.001 192.001c5.798 5.798 13.808 9.384 22.656 9.384 17.695 0 32.040-14.345 32.040-32.040 0-8.848-3.586-16.858-9.384-22.656v0l-137.408-137.344z" />
<glyph unicode="&#xe962;" glyph-name="arrow-left-right" d="M64 224c0-17.673 14.327-32 32-32v0h754.752l-201.408-201.344c-5.798-5.798-9.384-13.808-9.384-22.656 0-17.695 14.345-32.040 32.040-32.040 8.848 0 16.858 3.586 22.656 9.384v0l256 256c5.808 5.794 9.401 13.805 9.401 22.656s-3.593 16.862-9.401 22.655l-256.001 256.001c-5.798 5.798-13.808 9.384-22.656 9.384-17.695 0-32.040-14.345-32.040-32.040 0-8.848 3.586-16.858 9.384-22.656v0l201.408-201.344h-754.752c-17.673 0-32-14.327-32-32v0zM960 672c0-17.673-14.327-32-32-32v0h-754.752l201.408-201.344c5.798-5.798 9.384-13.808 9.384-22.656 0-17.695-14.345-32.040-32.040-32.040-8.848 0-16.858 3.586-22.656 9.384v0l-256 256c-5.808 5.794-9.401 13.805-9.401 22.656s3.593 16.862 9.401 22.655l256.001 256.001c5.798 5.798 13.808 9.384 22.656 9.384 17.695 0 32.040-14.345 32.040-32.040 0-8.848-3.586-16.858-9.384-22.656l-201.408-201.344h754.752c17.673 0 32-14.327 32-32v0z" />
<glyph unicode="&#xe963;" glyph-name="arrow-left-short" d="M768 448c0-17.673-14.327-32-32-32v0h-370.752l137.408-137.344c5.798-5.798 9.384-13.808 9.384-22.656 0-17.695-14.345-32.040-32.040-32.040-8.848 0-16.858 3.586-22.656 9.384v0l-192 192c-5.808 5.794-9.401 13.805-9.401 22.656s3.593 16.862 9.401 22.655l192.001 192.001c5.798 5.798 13.808 9.384 22.656 9.384 17.695 0 32.040-14.345 32.040-32.040 0-8.848-3.586-16.858-9.384-22.656v0l-137.408-137.344h370.752c17.673 0 32-14.327 32-32v0z" />
<glyph unicode="&#xe964;" glyph-name="arrow-left-square" d="M960 832c0 35.346-28.654 64-64 64v0h-768c-35.346 0-64-28.654-64-64v0-768c0-35.346 28.654-64 64-64v0h768c35.346 0 64 28.654 64 64v0zM0 832c0 70.692 57.308 128 128 128v0h768c70.692 0 128-57.308 128-128v0-768c0-70.692-57.308-128-128-128v0h-768c-70.692 0-128 57.308-128 128v0zM736 480c17.673 0 32-14.327 32-32s-14.327-32-32-32v0h-370.752l137.408-137.344c5.798-5.798 9.384-13.808 9.384-22.656 0-17.695-14.345-32.040-32.040-32.040-8.848 0-16.858 3.586-22.656 9.384v0l-192 192c-5.808 5.794-9.401 13.805-9.401 22.656s3.593 16.862 9.401 22.655l192.001 192.001c5.798 5.798 13.808 9.384 22.656 9.384 17.695 0 32.040-14.345 32.040-32.040 0-8.848-3.586-16.858-9.384-22.656v0l-137.408-137.344z" />
<glyph unicode="&#xe965;" glyph-name="arrow-left-square-fill" d="M1024 64c0-70.692-57.308-128-128-128v0h-768c-70.692 0-128 57.308-128 128v0 768c0 70.692 57.308 128 128 128v0h768c70.692 0 128-57.308 128-128v0zM736 480h-370.752l137.408 137.344c5.798 5.798 9.384 13.808 9.384 22.656 0 17.695-14.345 32.040-32.040 32.040-8.848 0-16.858-3.586-22.656-9.384v0l-192-192c-5.808-5.794-9.401-13.805-9.401-22.656s3.593-16.862 9.401-22.655l192.001-192.001c5.798-5.798 13.808-9.384 22.656-9.384 17.695 0 32.040 14.345 32.040 32.040 0 8.848-3.586 16.858-9.384 22.656v0l-137.408 137.344h370.752c17.673 0 32 14.327 32 32s-14.327 32-32 32v0z" />
<glyph unicode="&#xe966;" glyph-name="arrow-repeat" d="M738.176 512h251.648c8.834-0.003 15.994-7.166 15.994-16 0-3.907-1.4-7.487-3.726-10.265l0.020 0.025-125.824-151.040c-2.955-3.526-7.362-5.753-12.288-5.753s-9.333 2.226-12.268 5.728l-0.020 0.025-125.824 151.040c-2.306 2.753-3.706 6.333-3.706 10.24 0 8.834 7.16 15.997 15.994 16v0zM34.176 384h251.648c8.834 0.003 15.994 7.166 15.994 16 0 3.907-1.4 7.487-3.726 10.265l0.020-0.025-125.824 151.040c-2.955 3.526-7.362 5.753-12.288 5.753s-9.333-2.226-12.268-5.728l-0.020-0.025-125.824-151.040c-2.306-2.753-3.706-6.333-3.706-10.24 0-8.834 7.16-15.997 15.994-16v0zM512 768c-99.328 0-188.16-45.248-246.848-116.352-5.909-7.606-15.056-12.453-25.336-12.453-17.673 0-32 14.327-32 32 0 8.127 3.030 15.547 8.021 21.191l-0.030-0.034c70.969 85.478 177.258 139.507 296.167 139.507 189.444 0 346.858-137.14 378.381-317.559l0.333-2.3h-65.088c-30.816 147.108-159.459 256-313.535 256-0.023 0-0.046 0-0.069 0h0.004zM198.4 384c30.901-147.075 159.551-255.916 313.622-255.916 99.099 0 187.681 45.029 246.402 115.742l0.424 0.526c5.909 7.606 15.056 12.453 25.336 12.453 17.673 0 32-14.327 32-32 0-8.127-3.030-15.547-8.021-21.191l0.030 0.034c-70.969-85.478-177.258-139.507-296.167-139.507-189.444 0-346.858 137.14-378.381 317.559l-0.333 2.3z" />
<glyph unicode="&#xe967;" glyph-name="arrow-return-left" d="M928 864c17.673 0 32-14.327 32-32v0-307.2c0-88.366-71.634-160-160-160v0h-626.752l214.208-214.144c5.798-5.798 9.384-13.808 9.384-22.656 0-17.695-14.345-32.040-32.040-32.040-8.848 0-16.858 3.586-22.656 9.384v0l-268.8 268.8c-5.808 5.794-9.401 13.805-9.401 22.656s3.593 16.862 9.401 22.655l256.001 256.001c5.798 5.798 13.808 9.384 22.656 9.384 17.695 0 32.040-14.345 32.040-32.040 0-8.848-3.586-16.858-9.384-22.656v0l-201.408-201.344h626.752c53.019 0 96 42.981 96 96v307.2c0 17.673 14.327 32 32 32v0z" />
<glyph unicode="&#xe968;" glyph-name="arrow-return-right" d="M96 864c-17.673 0-32-14.327-32-32v0-307.2c0-88.366 71.634-160 160-160v0h626.752l-214.208-214.144c-5.798-5.798-9.384-13.808-9.384-22.656 0-17.695 14.345-32.040 32.040-32.040 8.848 0 16.858 3.586 22.656 9.384v0l268.8 268.8c5.808 5.794 9.401 13.805 9.401 22.656s-3.593 16.862-9.401 22.655l-256.001 256.001c-5.798 5.798-13.808 9.384-22.656 9.384-17.695 0-32.040-14.345-32.040-32.040 0-8.848 3.586-16.858 9.384-22.656v0l201.408-201.344h-626.752c-53.019 0-96 42.981-96 96v307.2c0 17.673-14.327 32-32 32v0z" />
<glyph unicode="&#xe969;" glyph-name="arrow-right" d="M64 448c0 17.673 14.327 32 32 32v0h754.752l-201.408 201.344c-5.798 5.798-9.384 13.808-9.384 22.656 0 17.695 14.345 32.040 32.040 32.040 8.848 0 16.858-3.586 22.656-9.384v0l256-256c5.808-5.794 9.401-13.805 9.401-22.656s-3.593-16.862-9.401-22.655l-256.001-256.001c-5.798-5.798-13.808-9.384-22.656-9.384-17.695 0-32.040 14.345-32.040 32.040 0 8.848 3.586 16.858 9.384 22.656v0l201.408 201.344h-754.752c-17.673 0-32 14.327-32 32v0z" />
<glyph unicode="&#xe96a;" glyph-name="arrow-right-circle" d="M64 448c0-247.424 200.576-448 448-448s448 200.576 448 448v0c0 247.424-200.576 448-448 448s-448-200.576-448-448v0zM1024 448c0-282.77-229.23-512-512-512s-512 229.23-512 512v0c0 282.77 229.23 512 512 512s512-229.23 512-512v0zM288 480c-17.673 0-32-14.327-32-32s14.327-32 32-32v0h370.752l-137.408-137.344c-5.798-5.798-9.384-13.808-9.384-22.656 0-17.695 14.345-32.040 32.040-32.040 8.848 0 16.858 3.586 22.656 9.384v0l192 192c5.808 5.794 9.401 13.805 9.401 22.656s-3.593 16.862-9.401 22.655l-192.001 192.001c-5.798 5.798-13.808 9.384-22.656 9.384-17.695 0-32.040-14.345-32.040-32.040 0-8.848 3.586-16.858 9.384-22.656v0l137.408-137.344z" />
<glyph unicode="&#xe96b;" glyph-name="arrow-right-circle-fill" d="M512 960c282.77 0 512-229.23 512-512s-229.23-512-512-512v0c-282.77 0-512 229.23-512 512s229.23 512 512 512v0zM288 480c-17.673 0-32-14.327-32-32s14.327-32 32-32v0h370.752l-137.408-137.344c-5.798-5.798-9.384-13.808-9.384-22.656 0-17.695 14.345-32.040 32.040-32.040 8.848 0 16.858 3.586 22.656 9.384v0l192 192c5.808 5.794 9.401 13.805 9.401 22.656s-3.593 16.862-9.401 22.655l-192.001 192.001c-5.798 5.798-13.808 9.384-22.656 9.384-17.695 0-32.040-14.345-32.040-32.040 0-8.848 3.586-16.858 9.384-22.656v0l137.408-137.344z" />
<glyph unicode="&#xe96c;" glyph-name="arrow-right-short" d="M256 448c0 17.673 14.327 32 32 32v0h370.752l-137.408 137.344c-5.798 5.798-9.384 13.808-9.384 22.656 0 17.695 14.345 32.040 32.040 32.040 8.848 0 16.858-3.586 22.656-9.384v0l192-192c5.808-5.794 9.401-13.805 9.401-22.656s-3.593-16.862-9.401-22.655l-192.001-192.001c-5.798-5.798-13.808-9.384-22.656-9.384-17.695 0-32.040 14.345-32.040 32.040 0 8.848 3.586 16.858 9.384 22.656v0l137.408 137.344h-370.752c-17.673 0-32 14.327-32 32v0z" />
<glyph unicode="&#xe96d;" glyph-name="arrow-right-square" d="M960 832c0 35.346-28.654 64-64 64v0h-768c-35.346 0-64-28.654-64-64v0-768c0-35.346 28.654-64 64-64v0h768c35.346 0 64 28.654 64 64v0zM0 832c0 70.692 57.308 128 128 128v0h768c70.692 0 128-57.308 128-128v0-768c0-70.692-57.308-128-128-128v0h-768c-70.692 0-128 57.308-128 128v0zM288 480c-17.673 0-32-14.327-32-32s14.327-32 32-32v0h370.752l-137.408-137.344c-5.798-5.798-9.384-13.808-9.384-22.656 0-17.695 14.345-32.040 32.040-32.040 8.848 0 16.858 3.586 22.656 9.384v0l192 192c5.808 5.794 9.401 13.805 9.401 22.656s-3.593 16.862-9.401 22.655l-192.001 192.001c-5.798 5.798-13.808 9.384-22.656 9.384-17.695 0-32.040-14.345-32.040-32.040 0-8.848 3.586-16.858 9.384-22.656v0l137.408-137.344z" />
<glyph unicode="&#xe96e;" glyph-name="arrow-right-square-fill" d="M0 64c0-70.692 57.308-128 128-128v0h768c70.692 0 128 57.308 128 128v0 768c0 70.692-57.308 128-128 128v0h-768c-70.692 0-128-57.308-128-128v0zM288 480h370.752l-137.408 137.344c-5.798 5.798-9.384 13.808-9.384 22.656 0 17.695 14.345 32.040 32.040 32.040 8.848 0 16.858-3.586 22.656-9.384v0l192-192c5.808-5.794 9.401-13.805 9.401-22.656s-3.593-16.862-9.401-22.655l-192.001-192.001c-5.798-5.798-13.808-9.384-22.656-9.384-17.695 0-32.040 14.345-32.040 32.040 0 8.848 3.586 16.858 9.384 22.656v0l137.408 137.344h-370.752c-17.673 0-32 14.327-32 32s14.327 32 32 32v0z" />
<glyph unicode="&#xe96f;" glyph-name="arrows" d="M73.344 425.344c-5.808 5.794-9.401 13.805-9.401 22.656s3.593 16.862 9.401 22.655l128.001 128.001c5.798 5.798 13.808 9.384 22.656 9.384 17.695 0 32.040-14.345 32.040-32.040 0-8.848-3.586-16.858-9.384-22.656v0l-73.408-73.344h677.504l-73.408 73.344c-5.798 5.798-9.384 13.808-9.384 22.656 0 17.695 14.345 32.040 32.040 32.040 8.848 0 16.858-3.586 22.656-9.384v0l128-128c5.808-5.794 9.401-13.805 9.401-22.656s-3.593-16.862-9.401-22.655l-128.001-128.001c-5.798-5.798-13.808-9.384-22.656-9.384-17.695 0-32.040 14.345-32.040 32.040 0 8.848 3.586 16.858 9.384 22.656v0l73.408 73.344h-677.504l73.408-73.344c5.798-5.798 9.384-13.808 9.384-22.656 0-17.695-14.345-32.040-32.040-32.040-8.848 0-16.858 3.586-22.656 9.384v0z" />
<glyph unicode="&#xe970;" glyph-name="arrows-angle-contract" d="M11.008-52.992c5.791-5.789 13.789-9.369 22.624-9.369s16.833 3.58 22.624 9.369l262.144 262.144v-177.152c0-17.673 14.327-32 32-32s32 14.327 32 32v0 254.4c0 17.673-14.327 32-32 32v0h-254.4c-17.673 0-32-14.327-32-32s14.327-32 32-32v0h177.152l-262.144-262.144c-5.789-5.791-9.369-13.789-9.369-22.624s3.58-16.833 9.369-22.624v0zM1012.992 948.992c-5.791 5.789-13.789 9.369-22.624 9.369s-16.833-3.58-22.624-9.369l-262.144-262.144v177.152c0 17.673-14.327 32-32 32s-32-14.327-32-32v0-254.4c0-17.673 14.327-32 32-32v0h254.4c17.673 0 32 14.327 32 32s-14.327 32-32 32v0h-177.152l262.144 262.144c5.789 5.791 9.369 13.789 9.369 22.624s-3.58 16.833-9.369 22.624v0z" />
<glyph unicode="&#xe971;" glyph-name="arrows-angle-expand" d="M372.992 308.992c-5.791 5.789-13.789 9.369-22.624 9.369s-16.833-3.58-22.624-9.369l-262.144-262.144v177.152c0 17.673-14.327 32-32 32s-32-14.327-32-32v0-254.4c0-17.673 14.327-32 32-32v0h254.4c17.673 0 32 14.327 32 32s-14.327 32-32 32v0h-177.152l262.144 262.144c5.789 5.791 9.369 13.789 9.369 22.624s-3.58 16.833-9.369 22.624v0zM651.008 587.008c5.791-5.789 13.789-9.369 22.624-9.369s16.833 3.58 22.624 9.369l262.144 262.144v-177.152c0-17.673 14.327-32 32-32s32 14.327 32 32v0 254.4c0 17.673-14.327 32-32 32v0h-254.4c-17.673 0-32-14.327-32-32s14.327-32 32-32h177.152l-262.144-262.144c-5.789-5.791-9.369-13.789-9.369-22.624s3.58-16.833 9.369-22.624v0z" />
<glyph unicode="&#xe972;" glyph-name="arrows-collapse" d="M64 448c0 17.673 14.327 32 32 32v0h832c17.673 0 32-14.327 32-32s-14.327-32-32-32v0h-832c-17.673 0-32 14.327-32 32v0zM512 960c17.673 0 32-14.327 32-32v0-242.752l73.344 73.408c5.798 5.798 13.808 9.384 22.656 9.384 17.695 0 32.040-14.345 32.040-32.040 0-8.848-3.586-16.858-9.384-22.656v0l-128-128c-5.794-5.808-13.805-9.401-22.656-9.401s-16.862 3.593-22.655 9.401l-128.001 128.001c-5.798 5.798-9.384 13.808-9.384 22.656 0 17.695 14.345 32.040 32.040 32.040 8.848 0 16.858-3.586 22.656-9.384v0l73.344-73.408v242.752c0 17.673 14.327 32 32 32v0zM480 210.752l-73.344-73.408c-5.798-5.798-13.808-9.384-22.656-9.384-17.695 0-32.040 14.345-32.040 32.040 0 8.848 3.586 16.858 9.384 22.656v0l128 128c5.794 5.808 13.805 9.401 22.656 9.401s16.862-3.593 22.655-9.401l128.001-128.001c5.798-5.798 9.384-13.808 9.384-22.656 0-17.695-14.345-32.040-32.040-32.040-8.848 0-16.858 3.586-22.656 9.384v0l-73.344 73.408v-242.752c0-17.673-14.327-32-32-32s-32 14.327-32 32v0z" />
<glyph unicode="&#xe973;" glyph-name="arrows-collapse-vertical" d="M512 0c-17.673 0-32 14.327-32 32v0 832c0 17.673 14.327 32 32 32s32-14.327 32-32v0-832c0-17.673-14.327-32-32-32v0zM0 448c0 17.673 14.327 32 32 32v0h242.752l-73.408 73.344c-5.798 5.798-9.384 13.808-9.384 22.656 0 17.695 14.345 32.040 32.040 32.040 8.848 0 16.858-3.586 22.656-9.384v0l128-128c5.808-5.794 9.401-13.805 9.401-22.656s-3.593-16.862-9.401-22.655l-128.001-128.001c-5.798-5.798-13.808-9.384-22.656-9.384-17.695 0-32.040 14.345-32.040 32.040 0 8.848 3.586 16.858 9.384 22.656v0l73.408 73.344h-242.752c-17.673 0-32 14.327-32 32v0zM749.248 416l73.408-73.344c5.798-5.798 9.384-13.808 9.384-22.656 0-17.695-14.345-32.040-32.040-32.040-8.848 0-16.858 3.586-22.656 9.384v0l-128 128c-5.808 5.794-9.401 13.805-9.401 22.656s3.593 16.862 9.401 22.655l128.001 128.001c5.798 5.798 13.808 9.384 22.656 9.384 17.695 0 32.040-14.345 32.040-32.040 0-8.848-3.586-16.858-9.384-22.656v0l-73.408-73.344h242.752c17.673 0 32-14.327 32-32s-14.327-32-32-32v0z" />
<glyph unicode="&#xe974;" glyph-name="arrows-expand" d="M64 448c0 17.673 14.327 32 32 32v0h832c17.673 0 32-14.327 32-32s-14.327-32-32-32v0h-832c-17.673 0-32 14.327-32 32v0zM489.344 950.656c5.794 5.808 13.805 9.401 22.656 9.401s16.862-3.593 22.655-9.401l128.001-128.001c5.798-5.798 9.384-13.808 9.384-22.656 0-17.695-14.345-32.040-32.040-32.040-8.848 0-16.858 3.586-22.656 9.384v0l-73.344 73.408v-242.752c0-17.673-14.327-32-32-32s-32 14.327-32 32v0 242.752l-73.344-73.408c-5.798-5.798-13.808-9.384-22.656-9.384-17.695 0-32.040 14.345-32.040 32.040 0 8.848 3.586 16.858 9.384 22.656v0zM512 320c17.673 0 32-14.327 32-32v0-242.752l73.344 73.408c5.798 5.798 13.808 9.384 22.656 9.384 17.695 0 32.040-14.345 32.040-32.040 0-8.848-3.586-16.858-9.384-22.656v0l-128-128c-5.794-5.808-13.805-9.401-22.656-9.401s-16.862 3.593-22.655 9.401l-128.001 128.001c-5.798 5.798-9.384 13.808-9.384 22.656 0 17.695 14.345 32.040 32.040 32.040 8.848 0 16.858-3.586 22.656-9.384v0l73.344-73.408v242.752c0 17.673 14.327 32 32 32v0z" />
<glyph unicode="&#xe975;" glyph-name="arrows-expand-vertical" d="M512 0c-17.673 0-32 14.327-32 32v0 832c0 17.673 14.327 32 32 32s32-14.327 32-32v0-832c0-17.673-14.327-32-32-32v0zM9.344 425.344c-5.808 5.794-9.401 13.805-9.401 22.656s3.593 16.862 9.401 22.655l128.001 128.001c5.798 5.798 13.808 9.384 22.656 9.384 17.695 0 32.040-14.345 32.040-32.040 0-8.848-3.586-16.858-9.384-22.656v0l-73.408-73.344h242.752c17.673 0 32-14.327 32-32s-14.327-32-32-32v0h-242.752l73.408-73.344c5.798-5.798 9.384-13.808 9.384-22.656 0-17.695-14.345-32.040-32.040-32.040-8.848 0-16.858 3.586-22.656 9.384v0zM640 448c0 17.673 14.327 32 32 32v0h242.752l-73.408 73.344c-5.798 5.798-9.384 13.808-9.384 22.656 0 17.695 14.345 32.040 32.040 32.040 8.848 0 16.858-3.586 22.656-9.384v0l128-128c5.808-5.794 9.401-13.805 9.401-22.656s-3.593-16.862-9.401-22.655l-128.001-128.001c-5.798-5.798-13.808-9.384-22.656-9.384-17.695 0-32.040 14.345-32.040 32.040 0 8.848 3.586 16.858 9.384 22.656v0l73.408 73.344h-242.752c-17.673 0-32 14.327-32 32v0z" />
<glyph unicode="&#xe976;" glyph-name="arrows-fullscreen" d="M372.992 308.992c-5.791 5.789-13.789 9.369-22.624 9.369s-16.833-3.58-22.624-9.369l-262.144-262.144v177.152c0 17.673-14.327 32-32 32s-32-14.327-32-32v0-254.4c0-17.673 14.327-32 32-32v0h254.4c17.673 0 32 14.327 32 32s-14.327 32-32 32v0h-177.152l262.144 262.144c5.789 5.791 9.369 13.789 9.369 22.624s-3.58 16.833-9.369 22.624v0zM651.008 308.992c5.791 5.789 13.789 9.369 22.624 9.369s16.833-3.58 22.624-9.369l262.144-262.144v177.152c0 17.673 14.327 32 32 32s32-14.327 32-32v0-254.4c0-17.673-14.327-32-32-32v0h-254.4c-17.673 0-32 14.327-32 32s14.327 32 32 32v0h177.152l-262.144 262.144c-5.789 5.791-9.369 13.789-9.369 22.624s3.58 16.833 9.369 22.624v0zM651.008 587.008c5.791-5.789 13.789-9.369 22.624-9.369s16.833 3.58 22.624 9.369l262.144 262.144v-177.152c0-17.673 14.327-32 32-32s32 14.327 32 32v0 254.4c0 17.673-14.327 32-32 32v0h-254.4c-17.673 0-32-14.327-32-32s14.327-32 32-32h177.152l-262.144-262.144c-5.789-5.791-9.369-13.789-9.369-22.624s3.58-16.833 9.369-22.624v0zM372.992 587.008c-5.791-5.789-13.789-9.369-22.624-9.369s-16.833 3.58-22.624 9.369l-262.144 262.144v-177.152c0-17.673-14.327-32-32-32s-32 14.327-32 32v0 254.4c0 17.673 14.327 32 32 32v0h254.4c17.673 0 32-14.327 32-32s-14.327-32-32-32h-177.152l262.144-262.144c5.789-5.791 9.369-13.789 9.369-22.624s-3.58-16.833-9.369-22.624v0z" />
<glyph unicode="&#xe977;" glyph-name="arrows-move" d="M489.344 950.656c5.794 5.808 13.805 9.401 22.656 9.401s16.862-3.593 22.655-9.401l128.001-128.001c5.798-5.798 9.384-13.808 9.384-22.656 0-17.695-14.345-32.040-32.040-32.040-8.848 0-16.858 3.586-22.656 9.384v0l-73.344 73.408v-242.752c0-17.673-14.327-32-32-32s-32 14.327-32 32v0 242.752l-73.344-73.408c-5.798-5.798-13.808-9.384-22.656-9.384-17.695 0-32.040 14.345-32.040 32.040 0 8.848 3.586 16.858 9.384 22.656v0zM512 320c17.673 0 32-14.327 32-32v0-242.752l73.344 73.408c5.798 5.798 13.808 9.384 22.656 9.384 17.695 0 32.040-14.345 32.040-32.040 0-8.848-3.586-16.858-9.384-22.656v0l-128-128c-5.794-5.808-13.805-9.401-22.656-9.401s-16.862 3.593-22.655 9.401l-128.001 128.001c-5.798 5.798-9.384 13.808-9.384 22.656 0 17.695 14.345 32.040 32.040 32.040 8.848 0 16.858-3.586 22.656-9.384v0l73.344-73.408v242.752c0 17.673 14.327 32 32 32v0zM9.344 425.344c-5.808 5.794-9.401 13.805-9.401 22.656s3.593 16.862 9.401 22.655l128.001 128.001c5.798 5.798 13.808 9.384 22.656 9.384 17.695 0 32.040-14.345 32.040-32.040 0-8.848-3.586-16.858-9.384-22.656v0l-73.408-73.344h242.752c17.673 0 32-14.327 32-32s-14.327-32-32-32v0h-242.752l73.408-73.344c5.798-5.798 9.384-13.808 9.384-22.656 0-17.695-14.345-32.040-32.040-32.040-8.848 0-16.858 3.586-22.656 9.384v0zM640 448c0 17.673 14.327 32 32 32v0h242.752l-73.408 73.344c-5.798 5.798-9.384 13.808-9.384 22.656 0 17.695 14.345 32.040 32.040 32.040 8.848 0 16.858-3.586 22.656-9.384v0l128-128c5.808-5.794 9.401-13.805 9.401-22.656s-3.593-16.862-9.401-22.655l-128.001-128.001c-5.798-5.798-13.808-9.384-22.656-9.384-17.695 0-32.040 14.345-32.040 32.040 0 8.848 3.586 16.858 9.384 22.656v0l73.408 73.344h-242.752c-17.673 0-32 14.327-32 32v0z" />
<glyph unicode="&#xe978;" glyph-name="arrows-vertical" d="M534.656 9.344c-5.794-5.808-13.805-9.401-22.656-9.401s-16.862 3.593-22.655 9.401l-128.001 128.001c-5.798 5.798-9.384 13.808-9.384 22.656 0 17.695 14.345 32.040 32.040 32.040 8.848 0 16.858-3.586 22.656-9.384v0l73.344-73.408v677.504l-73.344-73.408c-5.798-5.798-13.808-9.384-22.656-9.384-17.695 0-32.040 14.345-32.040 32.040 0 8.848 3.586 16.858 9.384 22.656v0l128 128c5.794 5.808 13.805 9.401 22.656 9.401s16.862-3.593 22.655-9.401l128.001-128.001c5.798-5.798 9.384-13.808 9.384-22.656 0-17.695-14.345-32.040-32.040-32.040-8.848 0-16.858 3.586-22.656 9.384v0l-73.344 73.408v-677.504l73.344 73.408c5.798 5.798 13.808 9.384 22.656 9.384 17.695 0 32.040-14.345 32.040-32.040 0-8.848-3.586-16.858-9.384-22.656v0z" />
<glyph unicode="&#xe979;" glyph-name="arrow-through-heart" d="M182.656-54.656c-5.794-5.808-13.805-9.401-22.656-9.401-17.673 0-32 14.327-32 32 0 0.020 0 0.040 0 0.060v-0.003 96h-96c-0.017 0-0.037 0-0.057 0-17.673 0-32 14.327-32 32 0 8.851 3.593 16.862 9.401 22.655l96.001 96.001c5.788 5.774 13.776 9.344 22.599 9.344 0.020 0 0.040 0 0.060 0h114.749l33.92 33.92c-49.344 51.328-84.992 101.12-109.056 148.48-51.072 100.8-49.6 191.744-13.632 261.888 65.28 127.552 241.536 175.936 358.016 84.8 80 62.72 188.416 59.392 269.568 9.728l69.12 69.184-73.28 73.344c-5.808 5.794-9.401 13.805-9.401 22.656 0 17.671 14.323 31.996 31.993 32h192c17.673 0 32-14.327 32-32v0-192c0-0.017 0-0.037 0-0.057 0-17.673-14.327-32-32-32-8.851 0-16.862 3.593-22.655 9.401l-73.345 73.409-64.384-64.384c15.104-15.872 28.16-33.984 38.4-54.080 35.968-70.144 37.44-161.088-13.632-261.888-50.752-100.032-153.28-210.432-326.72-325.12l-17.664-11.648-17.664 11.648c-64.494 42.341-120.588 85.765-173.101 133.086l1.261-1.118-34.496-34.56v-114.688c0-0.017 0-0.037 0-0.057 0-8.822-3.57-16.811-9.345-22.599l0.001 0.001zM367.808 258.56c43.1-38.739 90.142-75.556 139.604-109.069l4.588-2.931c157.184 106.624 244.928 205.248 287.296 288.768 43.456 85.76 38.848 154.88 13.76 203.84-52.288 102.080-197.568 131.456-278.144 48.704l-22.912-23.552-22.912 23.552c-80.576 82.752-225.92 53.376-278.144-48.704-25.088-49.024-29.696-118.080 13.76-203.84 20.672-40.704 52.16-85.12 97.216-132.16l119.424 119.488c5.798 5.798 13.808 9.384 22.656 9.384 17.695 0 32.040-14.345 32.040-32.040 0-8.848-3.586-16.858-9.384-22.656v0z" />
<glyph unicode="&#xe97a;" glyph-name="arrow-through-heart-fill" d="M182.656-54.656c-5.794-5.808-13.805-9.401-22.656-9.401-17.673 0-32 14.327-32 32 0 0.020 0 0.040 0 0.060v-0.003 96h-96c-0.017 0-0.037 0-0.057 0-17.673 0-32 14.327-32 32 0 8.851 3.593 16.862 9.401 22.655l96.001 96.001c5.788 5.774 13.776 9.344 22.599 9.344 0.020 0 0.040 0 0.060 0h114.749l198.592 198.656c5.798 5.798 13.808 9.384 22.656 9.384 17.695 0 32.040-14.345 32.040-32.040 0-8.848-3.586-16.858-9.384-22.656v0l-198.656-198.592v-114.752c0-0.017 0-0.037 0-0.057 0-8.822-3.57-16.811-9.345-22.599l0.001 0.001zM1024 736c0-0.017 0-0.037 0-0.057 0-17.673-14.327-32-32-32-8.851 0-16.862 3.593-22.655 9.401l-73.345 73.409-64.384-64.384c15.104-15.872 28.16-33.984 38.4-54.080 35.968-70.144 37.44-161.088-13.632-261.888-50.752-100.032-153.28-210.432-326.72-325.12l-17.664-11.648-17.664 11.648c-47.204 31.177-87.34 60.794-125.919 92.247l2.783-2.199 160.64 160.832c17.378 17.378 28.127 41.386 28.127 67.904 0 53.036-42.994 96.031-96.031 96.031-26.518 0-50.526-10.749-67.904-28.127l-161.984-162.048c-24.351 29.353-46.426 62.278-64.985 97.349l-1.511 3.131c-51.072 100.864-49.6 191.808-13.632 261.952 65.344 127.488 241.6 175.872 358.080 84.736 80 62.72 188.416 59.392 269.568 9.728l69.12 69.184-73.28 73.344c-5.808 5.794-9.401 13.805-9.401 22.656 0 17.671 14.323 31.996 31.993 32h192c17.673 0 32-14.327 32-32v0z" />
<glyph unicode="&#xe97b;" glyph-name="arrow-up" d="M512 0c17.673 0 32 14.327 32 32v0 754.752l201.344-201.408c5.798-5.798 13.808-9.384 22.656-9.384 17.695 0 32.040 14.345 32.040 32.040 0 8.848-3.586 16.858-9.384 22.656v0l-256 256c-5.794 5.808-13.805 9.401-22.656 9.401s-16.862-3.593-22.655-9.401l-256.001-256.001c-5.798-5.798-9.384-13.808-9.384-22.656 0-17.695 14.345-32.040 32.040-32.040 8.848 0 16.858 3.586 22.656 9.384v0l201.344 201.408v-754.752c0-17.673 14.327-32 32-32v0z" />
<glyph unicode="&#xe97c;" glyph-name="arrow-up-circle" d="M64 448c0-247.424 200.576-448 448-448s448 200.576 448 448v0c0 247.424-200.576 448-448 448s-448-200.576-448-448v0zM1024 448c0-282.77-229.23-512-512-512s-512 229.23-512 512v0c0 282.77 229.23 512 512 512s512-229.23 512-512v0zM544 224c0-17.673-14.327-32-32-32s-32 14.327-32 32v0 370.752l-137.344-137.408c-5.798-5.798-13.808-9.384-22.656-9.384-17.695 0-32.040 14.345-32.040 32.040 0 8.848 3.586 16.858 9.384 22.656v0l192 192c5.794 5.808 13.805 9.401 22.656 9.401s16.862-3.593 22.655-9.401l192.001-192.001c5.798-5.798 9.384-13.808 9.384-22.656 0-17.695-14.345-32.040-32.040-32.040-8.848 0-16.858 3.586-22.656 9.384v0l-137.344 137.408z" />
<glyph unicode="&#xe97d;" glyph-name="arrow-up-circle-fill" d="M1024 448c0 282.77-229.23 512-512 512s-512-229.23-512-512v0c0-282.77 229.23-512 512-512s512 229.23 512 512v0zM544 224c0-17.673-14.327-32-32-32s-32 14.327-32 32v0 370.752l-137.344-137.408c-5.798-5.798-13.808-9.384-22.656-9.384-17.695 0-32.040 14.345-32.040 32.040 0 8.848 3.586 16.858 9.384 22.656v0l192 192c5.794 5.808 13.805 9.401 22.656 9.401s16.862-3.593 22.655-9.401l192.001-192.001c5.798-5.798 9.384-13.808 9.384-22.656 0-17.695-14.345-32.040-32.040-32.040-8.848 0-16.858 3.586-22.656 9.384v0l-137.344 137.408z" />
<glyph unicode="&#xe97e;" glyph-name="arrow-up-left" d="M128 800c0 17.673 14.327 32 32 32v0h384c17.673 0 32-14.327 32-32s-14.327-32-32-32v0h-306.752l649.408-649.344c5.798-5.798 9.384-13.808 9.384-22.656 0-17.695-14.345-32.040-32.040-32.040-8.848 0-16.858 3.586-22.656 9.384v0l-649.344 649.408v-306.752c0-17.673-14.327-32-32-32s-32 14.327-32 32v0z" />
<glyph unicode="&#xe97f;" glyph-name="arrow-up-left-circle" d="M64 448c0-247.424 200.576-448 448-448s448 200.576 448 448v0c0 247.424-200.576 448-448 448s-448-200.576-448-448v0zM1024 448c0-282.77-229.23-512-512-512s-512 229.23-512 512v0c0 282.77 229.23 512 512 512s512-229.23 512-512v0zM646.144 268.608c5.827-6.027 13.985-9.769 23.017-9.769 17.673 0 32 14.327 32 32 0 9.032-3.742 17.19-9.76 23.009l-262.153 262.153h177.152c17.673 0 32 14.327 32 32s-14.327 32-32 32v0h-254.4c-17.673 0-32-14.327-32-32v0-254.4c0-17.673 14.327-32 32-32s32 14.327 32 32v0 177.152z" />
<glyph unicode="&#xe980;" glyph-name="arrow-up-left-circle-fill" d="M1024 448c0-282.77-229.23-512-512-512s-512 229.23-512 512v0c0 282.77 229.23 512 512 512s512-229.23 512-512v0zM646.144 268.608c5.827-6.027 13.985-9.769 23.017-9.769 17.673 0 32 14.327 32 32 0 9.032-3.742 17.19-9.76 23.009l-262.153 262.153h177.152c17.673 0 32 14.327 32 32s-14.327 32-32 32v0h-254.4c-17.673 0-32-14.327-32-32v0-254.4c0-17.673 14.327-32 32-32s32 14.327 32 32v0 177.152z" />
<glyph unicode="&#xe981;" glyph-name="arrow-up-left-square" d="M960 832c0 35.346-28.654 64-64 64v0h-768c-35.346 0-64-28.654-64-64v0-768c0-35.346 28.654-64 64-64v0h768c35.346 0 64 28.654 64 64v0zM0 832c0 70.692 57.308 128 128 128v0h768c70.692 0 128-57.308 128-128v0-768c0-70.692-57.308-128-128-128v0h-768c-70.692 0-128 57.308-128 128v0zM646.144 268.608c5.827-6.027 13.985-9.769 23.017-9.769 17.673 0 32 14.327 32 32 0 9.032-3.742 17.19-9.76 23.009l-262.153 262.153h177.152c17.673 0 32 14.327 32 32s-14.327 32-32 32v0h-254.4c-17.673 0-32-14.327-32-32v0-254.4c0-17.673 14.327-32 32-32s32 14.327 32 32v0 177.152z" />
<glyph unicode="&#xe982;" glyph-name="arrow-up-left-square-fill" d="M128 960c-70.692 0-128-57.308-128-128v0-768c0-70.692 57.308-128 128-128v0h768c70.692 0 128 57.308 128 128v0 768c0 70.692-57.308 128-128 128v0zM646.144 268.608l-262.144 262.144v-177.152c0-17.673-14.327-32-32-32s-32 14.327-32 32v0 254.4c0 17.673 14.327 32 32 32v0h254.4c17.673 0 32-14.327 32-32s-14.327-32-32-32v0h-177.152l262.144-262.144c6.027-5.827 9.769-13.985 9.769-23.017 0-17.673-14.327-32-32-32-9.032 0-17.19 3.742-23.009 9.76l-0.009 0.009z" />
<glyph unicode="&#xe983;" glyph-name="arrow-up-right" d="M896 800c0 17.673-14.327 32-32 32v0h-384c-17.673 0-32-14.327-32-32s14.327-32 32-32v0h306.752l-649.408-649.344c-5.798-5.798-9.384-13.808-9.384-22.656 0-17.695 14.345-32.040 32.040-32.040 8.848 0 16.858 3.586 22.656 9.384v0l649.344 649.408v-306.752c0-17.673 14.327-32 32-32s32 14.327 32 32v0z" />
<glyph unicode="&#xe984;" glyph-name="arrow-up-right-circle" d="M64 448c0-247.424 200.576-448 448-448s448 200.576 448 448v0c0 247.424-200.576 448-448 448s-448-200.576-448-448v0zM1024 448c0-282.77-229.23-512-512-512s-512 229.23-512 512v0c0 282.77 229.23 512 512 512s512-229.23 512-512v0zM374.656 268.608c-5.796-5.804-13.807-9.394-22.656-9.394-17.683 0-32.018 14.335-32.018 32.018 0 8.834 3.577 16.832 9.362 22.624v0l262.208 262.144h-177.152c-17.673 0-32 14.327-32 32s14.327 32 32 32v0h254.4c17.673 0 32-14.327 32-32v0-254.4c0-17.673-14.327-32-32-32s-32 14.327-32 32v0 177.152z" />
<glyph unicode="&#xe985;" glyph-name="arrow-up-right-circle-fill" d="M0 448c0-282.77 229.23-512 512-512s512 229.23 512 512v0c0 282.77-229.23 512-512 512s-512-229.23-512-512v0zM377.856 268.608c-5.827-6.027-13.985-9.769-23.017-9.769-17.673 0-32 14.327-32 32 0 9.032 3.742 17.19 9.76 23.009l262.153 262.153h-177.152c-17.673 0-32 14.327-32 32s14.327 32 32 32v0h254.4c17.673 0 32-14.327 32-32v0-254.4c0-17.673-14.327-32-32-32s-32 14.327-32 32v0 177.152z" />
<glyph unicode="&#xe986;" glyph-name="arrow-up-right-square" d="M960 832c0 35.346-28.654 64-64 64v0h-768c-35.346 0-64-28.654-64-64v0-768c0-35.346 28.654-64 64-64v0h768c35.346 0 64 28.654 64 64v0zM0 832c0 70.692 57.308 128 128 128v0h768c70.692 0 128-57.308 128-128v0-768c0-70.692-57.308-128-128-128v0h-768c-70.692 0-128 57.308-128 128v0zM374.656 268.608c-5.796-5.804-13.807-9.394-22.656-9.394-17.683 0-32.018 14.335-32.018 32.018 0 8.834 3.577 16.832 9.362 22.624v0l262.208 262.144h-177.152c-17.673 0-32 14.327-32 32s14.327 32 32 32v0h254.4c17.673 0 32-14.327 32-32v0-254.4c0-17.673-14.327-32-32-32s-32 14.327-32 32v0 177.152z" />
<glyph unicode="&#xe987;" glyph-name="arrow-up-right-square-fill" d="M896 960c70.692 0 128-57.308 128-128v0-768c0-70.692-57.308-128-128-128v0h-768c-70.692 0-128 57.308-128 128v0 768c0 70.692 57.308 128 128 128v0zM377.856 268.608l262.144 262.144v-177.152c0-17.673 14.327-32 32-32s32 14.327 32 32v0 254.4c0 17.673-14.327 32-32 32v0h-254.4c-17.673 0-32-14.327-32-32s14.327-32 32-32v0h177.152l-262.144-262.144c-5.558-5.749-8.983-13.59-8.983-22.231 0-17.673 14.327-32 32-32 8.641 0 16.482 3.425 22.24 8.991l-0.009-0.009z" />
<glyph unicode="&#xe988;" glyph-name="arrow-up-short" d="M512 192c17.673 0 32 14.327 32 32v0 370.752l137.344-137.408c5.798-5.798 13.808-9.384 22.656-9.384 17.695 0 32.040 14.345 32.040 32.040 0 8.848-3.586 16.858-9.384 22.656v0l-192 192c-5.794 5.808-13.805 9.401-22.656 9.401s-16.862-3.593-22.655-9.401l-192.001-192.001c-5.798-5.798-9.384-13.808-9.384-22.656 0-17.695 14.345-32.040 32.040-32.040 8.848 0 16.858 3.586 22.656 9.384v0l137.344 137.408v-370.752c0-17.673 14.327-32 32-32v0z" />
<glyph unicode="&#xe989;" glyph-name="arrow-up-square" d="M960 832c0 35.346-28.654 64-64 64v0h-768c-35.346 0-64-28.654-64-64v0-768c0-35.346 28.654-64 64-64v0h768c35.346 0 64 28.654 64 64v0zM0 832c0 70.692 57.308 128 128 128v0h768c70.692 0 128-57.308 128-128v0-768c0-70.692-57.308-128-128-128v0h-768c-70.692 0-128 57.308-128 128v0zM544 224c0-17.673-14.327-32-32-32s-32 14.327-32 32v0 370.752l-137.344-137.408c-5.798-5.798-13.808-9.384-22.656-9.384-17.695 0-32.040 14.345-32.040 32.040 0 8.848 3.586 16.858 9.384 22.656v0l192 192c5.794 5.808 13.805 9.401 22.656 9.401s16.862-3.593 22.655-9.401l192.001-192.001c5.798-5.798 9.384-13.808 9.384-22.656 0-17.695-14.345-32.040-32.040-32.040-8.848 0-16.858 3.586-22.656 9.384v0l-137.344 137.408z" />
<glyph unicode="&#xe98a;" glyph-name="arrow-up-square-fill" d="M128-64c-70.692 0-128 57.308-128 128v0 768c0 70.692 57.308 128 128 128v0h768c70.692 0 128-57.308 128-128v0-768c0-70.692-57.308-128-128-128v0zM544 224v370.752l137.344-137.408c5.798-5.798 13.808-9.384 22.656-9.384 17.695 0 32.040 14.345 32.040 32.040 0 8.848-3.586 16.858-9.384 22.656v0l-192 192c-5.794 5.808-13.805 9.401-22.656 9.401s-16.862-3.593-22.655-9.401l-192.001-192.001c-5.798-5.798-9.384-13.808-9.384-22.656 0-17.695 14.345-32.040 32.040-32.040 8.848 0 16.858 3.586 22.656 9.384v0l137.344 137.408v-370.752c0-17.673 14.327-32 32-32s32 14.327 32 32v0z" />
<glyph unicode="&#xe98b;" glyph-name="aspect-ratio" d="M0 736c0 53.019 42.981 96 96 96v0h832c53.019 0 96-42.981 96-96v0-576c0-53.019-42.981-96-96-96v0h-832c-53.019 0-96 42.981-96 96v0zM96 768c-17.673 0-32-14.327-32-32v0-576c0-17.673 14.327-32 32-32v0h832c17.673 0 32 14.327 32 32v0 576c0 17.673-14.327 32-32 32v0zM128 672c0 17.673 14.327 32 32 32v0h192c17.673 0 32-14.327 32-32s-14.327-32-32-32v0h-160v-160c0-17.673-14.327-32-32-32s-32 14.327-32 32v0zM896 224c0-17.673-14.327-32-32-32v0h-192c-17.673 0-32 14.327-32 32s14.327 32 32 32v0h160v160c0 17.673 14.327 32 32 32s32-14.327 32-32v0z" />
<glyph unicode="&#xe98c;" glyph-name="aspect-ratio-fill" d="M0 160v576c0 53.019 42.981 96 96 96v0h832c53.019 0 96-42.981 96-96v0-576c0-53.019-42.981-96-96-96v0h-832c-53.019 0-96 42.981-96 96v0zM160 704c-17.673 0-32-14.327-32-32v0-192c0-17.673 14.327-32 32-32s32 14.327 32 32v0 160h160c17.673 0 32 14.327 32 32s-14.327 32-32 32v0zM864 192c17.673 0 32 14.327 32 32v0 192c0 17.673-14.327 32-32 32s-32-14.327-32-32v0-160h-160c-17.673 0-32-14.327-32-32s14.327-32 32-32v0z" />
</font>
</defs>
</svg>
